<svg xmlns="http://www.w3.org/2000/svg" xmlns:xlink="http://www.w3.org/1999/xlink" width="500" zoomAndPan="magnify" viewBox="0 0 375 374.999991" height="500" preserveAspectRatio="xMidYMid meet" version="1.0"><defs><g/><clipPath id="66892f38e6"><path d="M 75.628906 71 L 299 71 L 299 304.21875 L 75.628906 304.21875 Z M 75.628906 71 " clip-rule="nonzero"/></clipPath></defs><path fill="#f8c592" d="M 178.625 122.339844 C 178.980469 119.746094 179.242188 117.152344 179.542969 114.558594 C 179.722656 112.945312 179.792969 111.320312 179.921875 109.695312 C 180.113281 107.363281 180.328125 105.03125 180.496094 102.703125 C 180.578125 101.460938 180.664062 100.203125 180.746094 98.960938 C 180.878906 96.90625 180.960938 94.851562 181.222656 92.792969 C 181.234375 92.675781 181.222656 92.554688 181.222656 92.433594 C 176.882812 92.328125 172.574219 92.84375 168.304688 93.535156 C 161.777344 94.597656 155.265625 95.746094 149.035156 98.101562 C 147.496094 98.6875 147.496094 98.625 146.386719 97.324219 C 145.980469 96.847656 145.648438 96.308594 145.171875 95.867188 C 143.65625 94.445312 141.914062 93.332031 140.171875 92.207031 C 136.710938 89.960938 133.109375 88 129.28125 86.460938 C 124.402344 84.488281 119.460938 82.660156 114.449219 81.058594 C 111.132812 80.003906 107.792969 79.023438 104.382812 78.34375 C 97.820312 77.066406 91.152344 76.824219 84.519531 76.457031 C 84.230469 76.441406 83.921875 76.40625 83.660156 76.597656 C 83.71875 76.835938 83.921875 76.957031 84.078125 77.101562 C 86.117188 79.144531 88.347656 80.984375 90.648438 82.71875 C 95.480469 86.351562 100.625 89.542969 105.71875 92.78125 C 112.875 97.335938 120.035156 101.902344 126.5 107.449219 C 129.183594 109.742188 131.691406 112.203125 133.597656 115.214844 C 134.316406 116.339844 134.945312 117.511719 135.171875 118.863281 C 135.246094 119.292969 135.160156 119.699219 134.648438 119.769531 C 134.148438 119.84375 133.945312 119.472656 133.886719 119.042969 C 133.800781 118.527344 133.621094 118.050781 133.40625 117.582031 C 132.429688 115.480469 131.011719 113.699219 129.433594 112.023438 C 126.632812 109.050781 123.421875 106.515625 120.152344 104.078125 C 118.804688 103.074219 117.457031 102.046875 116.011719 101.160156 C 115.976562 101.113281 115.929688 101.066406 115.882812 101.148438 C 115.871094 101.160156 115.917969 101.207031 115.941406 101.230469 C 116.8125 104.101562 117.503906 107.003906 118.234375 109.910156 C 119.199219 113.746094 120.296875 117.535156 121.894531 121.15625 C 123.113281 123.929688 124.628906 126.5 126.824219 128.628906 C 127.265625 129.058594 127.167969 129.605469 126.679688 129.773438 C 126.308594 129.90625 126.070312 129.691406 125.84375 129.464844 C 124.53125 128.195312 123.445312 126.761719 122.515625 125.195312 C 121.691406 123.820312 121.011719 122.375 120.285156 120.761719 C 120.273438 121.011719 120.261719 121.109375 120.261719 121.191406 C 120.226562 123.59375 120.1875 126.007812 120.5 128.398438 C 120.832031 130.910156 121.523438 133.289062 123.027344 135.378906 C 123.542969 136.097656 124.113281 136.742188 124.722656 137.375 C 124.996094 137.664062 125.03125 137.984375 124.757812 138.285156 C 124.484375 138.570312 124.148438 138.546875 123.851562 138.308594 C 123.746094 138.226562 123.648438 138.117188 123.554688 138.023438 C 120.582031 135.070312 119.425781 131.375 119.078125 127.324219 C 118.914062 125.292969 118.949219 123.261719 118.972656 121.242188 C 118.984375 120.34375 119.03125 119.449219 119.367188 118.597656 C 119.4375 118.417969 119.378906 118.289062 119.332031 118.144531 C 118.148438 114.808594 117.3125 111.378906 116.417969 107.972656 C 115.703125 105.210938 115.214844 102.378906 113.867188 99.820312 C 113.722656 99.546875 113.519531 99.402344 113.304688 99.261719 C 108.078125 95.734375 102.6875 92.484375 97.414062 89.027344 C 92.941406 86.101562 88.5625 83.027344 84.589844 79.417969 C 83.992188 78.882812 83.421875 78.320312 82.800781 77.734375 C 82.753906 77.855469 82.714844 77.914062 82.714844 77.960938 C 82.65625 78.488281 82.777344 78.988281 82.800781 79.503906 C 82.929688 83.867188 83.347656 88.191406 83.863281 92.53125 C 84.683594 99.535156 86.5 106.277344 89.097656 112.8125 C 90.496094 116.316406 92.152344 119.675781 94.027344 122.949219 C 96.507812 127.289062 99.179688 131.507812 102.28125 135.429688 C 104.75 138.546875 107.328125 141.570312 110.417969 144.128906 C 113.199219 146.425781 116.15625 148.46875 119.234375 150.332031 C 121.941406 151.96875 124.699219 153.511719 127.742188 154.46875 C 128.707031 154.765625 129.304688 155.460938 129.886719 156.175781 C 130.042969 156.367188 130.066406 156.605469 130.03125 156.859375 C 129.78125 159.070312 129.636719 161.292969 129.710938 163.515625 C 129.792969 166.203125 129.925781 168.882812 130.152344 171.558594 C 130.496094 175.625 131.152344 179.617188 132.621094 183.441406 C 133.191406 184.933594 133.800781 186.390625 134.816406 187.648438 C 134.816406 186.859375 134.480469 186.152344 134.328125 185.386719 C 133.597656 181.683594 134.265625 178.207031 135.722656 174.773438 C 136.402344 173.183594 137.644531 172.167969 138.859375 171.117188 C 141.210938 169.074219 143.65625 167.148438 146.171875 165.308594 C 149.058594 163.203125 152.078125 161.292969 155.167969 159.5 C 158.101562 157.789062 161.144531 156.285156 163.972656 154.382812 C 167.277344 152.160156 169.878906 149.292969 171.894531 145.875 C 174.183594 142 175.519531 137.769531 176.570312 133.433594 C 177.453125 129.773438 178.097656 126.070312 178.625 122.339844 Z M 156.648438 107.375 C 156.625 107.066406 156.804688 106.875 157.042969 106.753906 C 157.316406 106.621094 157.542969 106.800781 157.722656 106.980469 C 158.554688 107.84375 159.273438 108.785156 159.988281 109.742188 C 160.847656 110.890625 161.648438 112.074219 162.207031 113.398438 C 162.339844 113.722656 162.433594 114.070312 162.542969 114.414062 C 162.671875 114.835938 162.492188 115.144531 162.113281 115.265625 C 161.695312 115.382812 161.433594 115.132812 161.3125 114.738281 C 160.953125 113.519531 160.335938 112.445312 159.605469 111.402344 C 158.757812 110.195312 157.828125 109.0625 156.886719 107.9375 C 156.742188 107.769531 156.613281 107.601562 156.648438 107.375 Z M 153.558594 110.28125 C 153.867188 109.839844 154.308594 109.957031 154.667969 110.195312 C 156.648438 111.546875 158.34375 113.207031 159.714844 115.191406 C 159.808594 115.324219 159.878906 115.46875 159.867188 115.636719 C 159.90625 115.980469 159.714844 116.21875 159.414062 116.328125 C 159.035156 116.460938 158.808594 116.160156 158.652344 115.898438 C 158.03125 114.917969 157.207031 114.105469 156.398438 113.292969 C 155.65625 112.539062 154.835938 111.882812 153.964844 111.296875 C 153.605469 111.058594 153.210938 110.757812 153.558594 110.28125 Z M 163.414062 144.570312 C 162.957031 145.300781 162.421875 145.957031 161.765625 146.519531 C 159.285156 148.625 156.410156 148.0625 154.394531 145.636719 C 152.722656 143.628906 151.921875 141.238281 151.578125 138.703125 C 151.101562 135.210938 151.421875 131.792969 152.914062 128.554688 C 153.5 127.277344 154.261719 126.117188 155.382812 125.246094 C 157.625 123.488281 160.109375 123.632812 162.125 125.675781 C 163.828125 127.40625 164.6875 129.570312 165.214844 131.890625 C 165.523438 133.230469 165.644531 134.601562 165.621094 135.976562 C 165.605469 139.027344 165.035156 141.929688 163.414062 144.570312 Z M 163.414062 144.570312 " fill-opacity="1" fill-rule="nonzero"/><path fill="#f8c592" d="M 292.972656 93.261719 C 291.769531 93.476562 290.539062 93.605469 289.324219 93.773438 C 286.019531 94.253906 282.714844 94.8125 279.445312 95.519531 C 273.300781 96.847656 267.382812 98.828125 261.621094 101.328125 C 259.546875 102.222656 257.503906 103.214844 255.5 104.257812 C 255.273438 104.375 255.082031 104.449219 255.308594 104.757812 C 255.5625 105.09375 255.371094 105.402344 255.09375 105.644531 C 254.617188 106.050781 254.25 106.539062 253.914062 107.066406 C 253.042969 108.453125 252.421875 109.957031 251.851562 111.488281 C 250.109375 116.078125 248.925781 120.835938 247.460938 125.507812 C 247.375 125.757812 247.363281 125.925781 247.710938 125.925781 C 248.128906 125.9375 248.285156 126.261719 248.34375 126.605469 C 248.523438 127.777344 248.652344 128.972656 248.738281 130.15625 C 248.867188 132.09375 248.785156 134.003906 248.484375 135.917969 C 248.140625 138.164062 247.449219 140.28125 245.992188 142.085938 C 245.660156 142.503906 245.300781 142.910156 244.847656 143.207031 C 244.527344 143.425781 244.191406 143.425781 243.953125 143.089844 C 243.714844 142.765625 243.761719 142.445312 244.058594 142.179688 C 245.574219 140.914062 246.351562 139.230469 246.863281 137.375 C 247.566406 134.804688 247.542969 132.175781 247.390625 129.558594 C 247.339844 128.699219 247.304688 127.800781 247.007812 126.882812 C 246.683594 127.636719 246.410156 128.304688 246.101562 128.972656 C 245.179688 130.945312 244.046875 132.785156 242.496094 134.351562 C 242.175781 134.675781 241.792969 134.867188 241.410156 134.449219 C 241.042969 134.054688 241.28125 133.71875 241.578125 133.40625 C 242.808594 132.1875 243.726562 130.753906 244.511719 129.222656 C 246.050781 126.261719 246.816406 123.019531 247.78125 119.855469 C 249.261719 115 250.492188 110.054688 253.222656 105.679688 C 253.257812 105.628906 253.34375 105.535156 253.328125 105.523438 C 253.234375 105.425781 253.175781 105.511719 253.113281 105.570312 C 253.042969 105.59375 252.960938 105.617188 252.902344 105.65625 C 245.898438 109.660156 239.289062 114.175781 233.917969 120.308594 C 233.550781 120.726562 233.144531 120.785156 232.847656 120.476562 C 232.476562 120.09375 232.679688 119.746094 232.953125 119.421875 C 234.027344 118.132812 235.207031 116.960938 236.4375 115.8125 C 241.03125 111.511719 246.195312 107.984375 251.648438 104.867188 C 262.875 98.421875 274.933594 94.445312 287.738281 92.675781 C 288.429688 92.578125 289.109375 92.449219 289.789062 92.328125 C 284.097656 91.050781 278.394531 90.019531 272.609375 89.484375 C 270.507812 89.292969 268.410156 89.136719 266.296875 89.125 C 264.234375 89.113281 262.171875 89.328125 260.105469 89.410156 C 254.929688 89.625 249.773438 90.164062 244.609375 90.726562 C 237.664062 91.480469 231.007812 93.320312 224.507812 95.792969 C 223.074219 96.332031 221.621094 96.808594 220.269531 97.5625 C 220.070312 97.683594 219.9375 97.585938 219.769531 97.527344 C 217.394531 96.65625 214.988281 95.949219 212.515625 95.410156 C 208.484375 94.539062 204.429688 93.761719 200.335938 93.164062 C 197.9375 92.816406 195.527344 92.566406 193.105469 92.460938 C 193.011719 93.425781 193.226562 94.382812 193.285156 95.351562 C 193.332031 96.09375 193.378906 96.859375 193.453125 97.597656 C 193.632812 99.738281 193.703125 101.878906 193.847656 104.015625 C 194.023438 106.5625 194.214844 109.121094 194.441406 111.667969 C 194.65625 114.058594 194.882812 116.4375 195.160156 118.8125 C 195.816406 124.382812 196.710938 129.917969 198.152344 135.34375 C 198.90625 138.152344 199.8125 140.902344 201.085938 143.519531 C 202.183594 145.765625 203.546875 147.859375 205.167969 149.792969 C 207.601562 152.6875 210.65625 154.765625 213.914062 156.570312 C 218.136719 158.902344 222.347656 161.257812 226.308594 164.019531 C 229.027344 165.90625 231.664062 167.925781 234.171875 170.089844 C 235.171875 170.960938 236.199219 171.8125 237.210938 172.671875 C 237.570312 172.96875 237.785156 173.375 238.011719 173.78125 C 238.191406 174.09375 238.25 174.464844 238.558594 174.691406 C 238.597656 174.535156 238.65625 174.390625 238.679688 174.238281 C 239.132812 170.003906 239.492188 165.761719 239.382812 161.507812 C 239.3125 158.640625 239.132812 155.78125 238.726562 152.9375 C 238.703125 152.734375 238.691406 152.519531 238.800781 152.351562 C 239.289062 151.609375 239.835938 150.835938 240.695312 150.621094 C 244.109375 149.757812 247.425781 148.597656 250.742188 147.414062 C 253.796875 146.328125 256.777344 145.050781 259.570312 143.398438 C 264.867188 140.28125 269.53125 136.359375 273.777344 131.9375 C 277.464844 128.101562 280.9375 124.097656 283.777344 119.566406 C 285.328125 117.105469 286.746094 114.570312 287.914062 111.917969 C 289.214844 108.976562 290.21875 105.941406 291.125 102.871094 C 292.019531 99.832031 292.796875 96.773438 293.332031 93.644531 C 293.4375 93.296875 293.425781 93.175781 292.972656 93.261719 Z M 221.128906 114.511719 C 221.320312 114.929688 221.058594 115.179688 220.710938 115.359375 C 219.472656 116.015625 218.230469 116.699219 217.097656 117.535156 C 216.941406 117.65625 216.789062 117.691406 216.585938 117.691406 C 216.335938 117.714844 216.121094 117.632812 216 117.378906 C 215.871094 117.117188 215.941406 116.878906 216.15625 116.675781 C 216.621094 116.195312 217.207031 115.898438 217.753906 115.550781 C 218.519531 115.050781 219.316406 114.617188 220.140625 114.199219 C 220.570312 113.984375 220.925781 114.082031 221.128906 114.511719 Z M 212.324219 115.765625 C 213.066406 114.464844 214.03125 113.328125 215.023438 112.226562 C 216.023438 111.128906 217.109375 110.113281 218.328125 109.253906 C 218.683594 109 219.054688 108.773438 219.496094 108.703125 C 219.792969 108.691406 220.019531 108.808594 220.09375 109.097656 C 220.1875 109.429688 220.105469 109.730469 219.769531 109.910156 C 218.53125 110.566406 217.503906 111.511719 216.550781 112.515625 C 215.390625 113.710938 214.28125 114.953125 213.472656 116.421875 C 213.269531 116.792969 213.019531 117.117188 212.539062 116.914062 C 212.136719 116.734375 212.050781 116.246094 212.324219 115.765625 Z M 220.1875 144.570312 C 219.710938 145.347656 219.136719 146.066406 218.398438 146.628906 C 216.15625 148.335938 213.699219 148.191406 211.695312 146.195312 C 210.15625 144.667969 209.285156 142.753906 208.769531 140.675781 C 207.746094 136.527344 207.949219 132.464844 209.703125 128.542969 C 210.273438 127.265625 211.050781 126.105469 212.171875 125.234375 C 214.414062 123.476562 216.90625 123.632812 218.910156 125.664062 C 220.640625 127.40625 221.488281 129.59375 222.011719 131.9375 C 222.3125 133.265625 222.40625 134.613281 222.40625 135.964844 C 222.40625 139.027344 221.824219 141.941406 220.1875 144.570312 Z M 220.1875 144.570312 " fill-opacity="1" fill-rule="nonzero"/><path fill="#f8c592" d="M 163.816406 255.964844 C 161.800781 254.566406 159.558594 253.578125 157.386719 252.476562 C 154.023438 250.765625 150.835938 248.832031 148.175781 246.105469 C 146.78125 244.671875 145.386719 243.226562 144.039062 241.730469 C 142.449219 239.972656 140.9375 238.15625 139.695312 236.148438 C 139.003906 235.027344 138.300781 233.855469 138.394531 232.445312 C 138.453125 231.585938 138.730469 230.769531 139.097656 230.007812 C 139.992188 228.152344 141.175781 226.539062 142.890625 225.355469 C 143.597656 224.878906 144.289062 224.878906 144.992188 225.355469 C 145.78125 225.871094 146.472656 226.492188 147.140625 227.148438 C 147.773438 227.785156 148.429688 228.394531 149.144531 228.929688 C 149.667969 229.324219 150.253906 229.527344 150.851562 229.15625 C 151.457031 228.773438 151.46875 228.117188 151.375 227.496094 C 151.253906 226.777344 151.089844 226.0625 150.898438 225.355469 C 150.015625 222.191406 149.046875 219.035156 148.226562 215.855469 C 147.425781 212.769531 146.710938 209.664062 146.484375 206.460938 C 146.386719 205.15625 146.304688 203.84375 146.328125 202.539062 C 146.351562 201.355469 146.269531 200.148438 146.519531 198.976562 C 146.519531 198.738281 146.519531 198.5 146.519531 198.25 C 146.433594 198.1875 146.363281 198.117188 146.28125 198.070312 C 143.964844 196.765625 141.6875 195.40625 139.550781 193.816406 C 137.894531 192.582031 136.222656 191.363281 135.519531 189.273438 C 133.871094 191.652344 132.441406 194.148438 131.070312 196.683594 C 129.230469 200.078125 127.882812 203.699219 126.464844 207.285156 C 125.832031 208.886719 125.128906 210.476562 124.699219 212.136719 C 123.863281 215.402344 123.410156 218.746094 122.957031 222.09375 C 122.445312 225.835938 122.300781 229.589844 122.324219 233.339844 C 122.335938 236.136719 122.503906 238.945312 122.847656 241.730469 C 123.230469 244.730469 123.757812 247.683594 124.519531 250.613281 C 124.960938 252.296875 125.5 253.957031 126.105469 255.597656 C 126.320312 256.171875 126.128906 256.648438 125.652344 256.839844 C 125.164062 257.042969 124.710938 256.816406 124.460938 256.253906 C 124.402344 256.109375 124.351562 255.953125 124.292969 255.8125 C 122.597656 251.246094 121.621094 246.523438 121.058594 241.695312 C 120.65625 238.253906 120.5 234.800781 120.535156 231.332031 C 120.582031 227.316406 120.941406 223.324219 121.539062 219.34375 C 122.132812 215.339844 122.921875 211.371094 124.042969 207.488281 C 124.292969 206.628906 124.542969 205.753906 124.804688 204.859375 C 124.519531 204.90625 124.386719 205.0625 124.234375 205.179688 C 122.863281 206.269531 121.644531 207.523438 120.414062 208.777344 C 117.492188 211.792969 114.878906 215.019531 112.671875 218.59375 C 111.265625 220.875 109.894531 223.195312 108.855469 225.679688 C 108.472656 226.589844 108.042969 227.4375 107.351562 228.140625 C 107.757812 228.871094 108.402344 229.421875 108.902344 230.078125 C 111.492188 233.460938 113.472656 237.191406 115.214844 241.050781 C 116.40625 243.691406 117.46875 246.382812 118.351562 249.152344 C 119.246094 251.976562 119.84375 254.855469 120.261719 257.785156 C 120.414062 258.894531 120.605469 260.019531 120.628906 261.140625 C 121.011719 260.976562 121.417969 260.914062 121.835938 260.890625 C 124.125 260.699219 126.441406 260.746094 128.707031 260.328125 C 128.839844 260.304688 128.980469 260.269531 129.101562 260.378906 C 129.734375 260.902344 130.355469 261.417969 130.699219 262.195312 C 131.679688 264.371094 132.679688 266.53125 133.945312 268.550781 C 135.507812 268.886719 137.046875 269.292969 138.574219 269.808594 C 141.460938 270.765625 144.441406 271.433594 147.449219 271.933594 C 150.3125 272.414062 153.175781 272.867188 156.097656 272.734375 C 157.066406 272.6875 158.03125 272.617188 158.949219 272.246094 C 160.585938 271.589844 161.921875 270.488281 163.078125 269.199219 C 164.820312 267.25 166.167969 265.0625 166.71875 262.46875 C 167.050781 260.902344 167.027344 259.398438 166.0625 258.023438 C 165.476562 257.113281 164.640625 256.550781 163.816406 255.964844 Z M 163.816406 255.964844 " fill-opacity="1" fill-rule="nonzero"/><path fill="#f8c592" d="M 258.183594 223.96875 C 256.574219 220.671875 254.59375 217.601562 252.445312 214.625 C 252.054688 214.085938 251.71875 213.5 251.148438 213.023438 C 251.148438 213.214844 251.121094 213.332031 251.148438 213.441406 C 251.828125 216.691406 252.207031 219.976562 252.601562 223.265625 C 252.996094 226.648438 253.199219 230.042969 253.257812 233.4375 C 253.304688 236.246094 253.164062 239.054688 253.019531 241.851562 C 252.914062 243.75 252.746094 245.664062 252.53125 247.550781 C 252.269531 249.894531 251.945312 252.238281 251.601562 254.566406 C 251.398438 255.953125 251.121094 257.339844 250.859375 258.726562 C 250.742188 259.347656 250.347656 259.636719 249.824219 259.550781 C 249.308594 259.480469 249.058594 259.074219 249.117188 258.429688 C 249.128906 258.308594 249.15625 258.191406 249.179688 258.070312 C 249.320312 257.304688 249.464844 256.550781 249.609375 255.789062 C 250.074219 253.144531 250.429688 250.492188 250.71875 247.828125 C 250.96875 245.519531 251.160156 243.203125 251.300781 240.882812 C 251.398438 239.390625 251.398438 237.894531 251.46875 236.414062 C 251.601562 233.878906 251.433594 231.355469 251.335938 228.835938 C 251.253906 226.828125 251.015625 224.832031 250.800781 222.847656 C 250.632812 221.304688 250.5625 219.75 250.15625 218.257812 C 249.714844 216.597656 249.167969 214.957031 248.628906 213.308594 C 248.007812 211.398438 247.1875 209.566406 246.507812 207.691406 C 245.753906 205.613281 244.96875 203.554688 244 201.570312 C 242.449219 198.34375 240.613281 195.261719 238.714844 192.238281 C 237.773438 190.742188 236.84375 189.238281 235.78125 187.828125 C 235.519531 187.957031 235.421875 188.234375 235.242188 188.449219 C 234.695312 189.117188 234.15625 189.785156 233.621094 190.457031 C 233.65625 190.777344 233.703125 191.101562 233.742188 191.425781 C 233.789062 191.820312 233.824219 192.214844 233.871094 192.609375 C 234.027344 194.066406 234.132812 195.523438 234.265625 196.980469 C 234.445312 199.003906 234.527344 201.023438 234.539062 203.042969 C 234.539062 204.203125 234.492188 205.371094 234.386719 206.542969 C 234.15625 209.078125 233.65625 211.5625 233.085938 214.027344 C 232.238281 217.636719 231.117188 221.171875 230.125 224.746094 C 229.839844 225.773438 229.542969 226.816406 229.457031 227.878906 C 229.421875 228.40625 229.566406 228.882812 230.054688 229.15625 C 230.53125 229.421875 231.019531 229.347656 231.460938 229.0625 C 231.722656 228.894531 231.988281 228.703125 232.226562 228.488281 C 233.167969 227.640625 234.097656 226.765625 235.039062 225.917969 C 236.425781 224.6875 237.1875 224.6875 238.585938 225.800781 C 239.980469 226.921875 240.957031 228.355469 241.746094 229.921875 C 242.652344 231.703125 242.746094 233.496094 241.6875 235.253906 C 241.195312 236.066406 240.695312 236.878906 240.136719 237.65625 C 237.75 240.917969 234.96875 243.847656 232.082031 246.65625 C 230.902344 247.804688 229.648438 248.878906 228.253906 249.777344 C 224.816406 251.976562 221.046875 253.539062 217.527344 255.597656 C 216.714844 256.253906 215.796875 256.765625 215.105469 257.582031 C 214.402344 258.394531 214.03125 259.324219 213.9375 260.378906 C 213.902344 261.585938 214.128906 262.753906 214.542969 263.878906 C 215.582031 266.675781 217.3125 268.972656 219.613281 270.871094 C 221.441406 272.378906 223.589844 272.785156 225.78125 272.734375 C 227.882812 272.6875 229.996094 272.4375 232.082031 272.089844 C 235.757812 271.480469 239.382812 270.703125 242.925781 269.519531 C 243.679688 269.269531 244.359375 268.851562 245.15625 268.707031 C 245.910156 267.128906 246.566406 265.503906 247.125 263.855469 C 247.484375 262.816406 247.984375 261.90625 248.867188 261.226562 C 249.09375 261.046875 249.320312 260.9375 249.621094 260.9375 C 250.347656 260.914062 251.085938 260.914062 251.816406 260.796875 C 252.230469 260.722656 252.542969 260.785156 252.851562 261.058594 C 252.984375 258.703125 253.390625 256.375 253.855469 254.066406 C 254.855469 249.152344 256.683594 244.527344 258.769531 239.988281 C 259.796875 237.761719 260.953125 235.613281 262.230469 233.519531 C 262.3125 233.390625 262.347656 233.234375 262.410156 233.078125 C 261.929688 232.503906 261.40625 231.992188 261.15625 231.238281 C 260.285156 228.789062 259.332031 226.335938 258.183594 223.96875 Z M 258.183594 223.96875 " fill-opacity="1" fill-rule="nonzero"/><path fill="#f8c592" d="M 195.183594 214.613281 C 193.859375 213 192.332031 211.683594 190.398438 210.824219 C 188.144531 209.820312 185.816406 209.59375 183.429688 210.011719 C 180.484375 210.523438 178.109375 212.089844 176.203125 214.371094 C 173.980469 217.347656 173.183594 220.660156 173.945312 224.292969 C 174.554688 227.1875 176.09375 229.515625 178.433594 231.308594 C 179.960938 232.480469 181.6875 233.171875 183.550781 233.566406 C 183.8125 233.628906 184.074219 233.675781 184.085938 233.257812 C 184.109375 232.648438 184.171875 232.027344 184.183594 231.417969 C 184.195312 229.804688 184.160156 228.191406 184.207031 226.574219 C 184.230469 225.871094 184.074219 225.34375 183.539062 224.84375 C 182.75 224.125 182.644531 222.789062 183.132812 221.746094 C 183.65625 220.601562 184.863281 220.085938 185.769531 220.132812 C 186.878906 220.195312 187.796875 220.71875 188.261719 221.78125 C 188.714844 222.824219 188.632812 223.839844 187.941406 224.769531 C 187.808594 224.949219 187.667969 225.09375 187.65625 225.332031 C 187.628906 226.179688 187.582031 227.042969 187.546875 227.890625 C 187.5 229.5625 187.59375 231.226562 187.640625 232.898438 C 187.652344 233.425781 187.773438 233.542969 188.296875 233.414062 C 191.148438 232.707031 193.441406 231.152344 195.207031 228.824219 C 196.839844 226.660156 197.605469 224.160156 197.542969 221.472656 C 197.484375 218.960938 196.683594 216.65625 195.183594 214.613281 Z M 195.183594 214.613281 " fill-opacity="1" fill-rule="nonzero"/><path fill="#e6ded4" d="M 171.691406 264.464844 C 172.039062 264.917969 172.347656 265.503906 173.085938 265.410156 C 173.433594 264.882812 173.886719 264.464844 174.351562 264.046875 C 174.578125 263.84375 174.769531 263.820312 175.019531 263.960938 C 174.996094 263.570312 174.925781 263.1875 174.699219 262.839844 C 173.277344 260.640625 171.644531 258.597656 170.105469 256.492188 C 167.003906 252.261719 163.78125 248.113281 161.039062 243.621094 C 160.523438 242.785156 159.628906 242.507812 158.84375 242.914062 C 157.984375 243.355469 157.625 244.335938 158.042969 245.246094 C 158.269531 245.722656 158.542969 246.191406 158.84375 246.644531 C 161.445312 250.648438 164.308594 254.472656 167.144531 258.308594 C 168.671875 260.351562 170.164062 262.421875 171.691406 264.464844 Z M 171.691406 264.464844 " fill-opacity="1" fill-rule="nonzero"/><path fill="#e6ded4" d="M 206.265625 277.910156 C 205.527344 277.769531 204.976562 278.199219 204.535156 278.722656 C 204.011719 279.34375 203.628906 280.074219 203.234375 280.78125 C 201.21875 284.449219 199.824219 288.285156 199.941406 292.554688 C 199.953125 292.816406 200.039062 293.113281 199.847656 293.355469 C 199.929688 293.53125 200.015625 293.710938 200.109375 293.878906 C 200.96875 295.207031 202.398438 295.742188 203.722656 296.425781 C 203.832031 295.898438 203.652344 295.398438 203.59375 294.894531 C 203.378906 293.199219 203.257812 291.488281 203.546875 289.804688 C 204.117188 286.539062 205.335938 283.527344 207.265625 280.804688 C 208.101562 279.65625 207.589844 278.164062 206.265625 277.910156 Z M 206.265625 277.910156 " fill-opacity="1" fill-rule="nonzero"/><path fill="#e6ded4" d="M 182.894531 295.230469 C 182.894531 292.972656 182.203125 290.890625 181.234375 288.894531 C 179.972656 286.277344 178.230469 283.945312 176.796875 281.425781 C 176.453125 280.828125 175.558594 280.492188 174.996094 280.660156 C 173.933594 280.984375 173.125 282 174.007812 283.433594 C 175.152344 285.308594 176.34375 287.175781 177.441406 289.074219 C 178.671875 291.214844 179.566406 293.472656 179.433594 296.019531 C 179.410156 296.472656 179.457031 296.925781 179.46875 297.394531 C 180.722656 296.964844 181.914062 296.378906 183.027344 295.660156 C 182.882812 295.554688 182.894531 295.386719 182.894531 295.230469 Z M 182.894531 295.230469 " fill-opacity="1" fill-rule="nonzero"/><path fill="#e6ded4" d="M 173.707031 298.351562 C 172.371094 297.140625 170.988281 295.996094 169.769531 294.65625 C 168.078125 292.792969 166.871094 290.652344 165.964844 288.320312 C 165.632812 287.472656 165.40625 286.589844 165.105469 285.726562 C 164.796875 284.820312 163.652344 284.054688 162.683594 284.6875 C 161.980469 285.152344 161.609375 285.980469 161.847656 286.816406 C 163.019531 290.925781 164.832031 294.667969 167.921875 297.703125 C 168.207031 297.992188 168.613281 298.195312 168.695312 298.648438 C 170.4375 298.945312 172.191406 299.101562 173.945312 298.742188 C 173.945312 298.566406 173.828125 298.457031 173.707031 298.351562 Z M 173.707031 298.351562 " fill-opacity="1" fill-rule="nonzero"/><path fill="#e6ded4" d="M 214.03125 286.277344 C 212.851562 287.519531 212.195312 289.097656 211.539062 290.652344 C 210.523438 293.089844 210.144531 295.742188 209.019531 298.144531 C 210.238281 298.410156 211.480469 298.515625 212.730469 298.480469 C 212.777344 297.777344 213.148438 297.167969 213.328125 296.496094 C 214.101562 293.664062 214.867188 290.820312 216.632812 288.382812 C 216.90625 288.011719 217.109375 287.558594 216.964844 287.042969 C 216.585938 285.726562 214.988281 285.273438 214.03125 286.277344 Z M 214.03125 286.277344 " fill-opacity="1" fill-rule="nonzero"/><path fill="#e6ded4" d="M 233.585938 190.457031 C 233.347656 190.480469 233.214844 190.671875 233.0625 190.828125 C 231.6875 192.273438 230.089844 193.457031 228.46875 194.589844 C 225.414062 196.71875 222.179688 198.523438 218.78125 200.042969 C 215.367188 201.558594 211.847656 202.777344 208.246094 203.734375 C 203.710938 204.929688 199.121094 205.777344 194.453125 206.269531 C 192.09375 206.507812 189.71875 206.652344 187.355469 206.699219 C 183.515625 206.78125 179.660156 206.734375 175.832031 206.375 C 174.007812 206.210938 172.179688 206.019531 170.367188 205.730469 C 166.871094 205.179688 163.414062 204.453125 160.011719 203.496094 C 156.207031 202.421875 152.496094 201.09375 148.929688 199.382812 C 148.128906 199.003906 147.355469 198.535156 146.519531 198.226562 C 146.519531 198.464844 146.519531 198.703125 146.519531 198.953125 C 147.078125 199.503906 147.617188 200.089844 148.203125 200.617188 C 149.929688 202.167969 151.746094 203.605469 153.652344 204.90625 C 157.53125 207.558594 161.597656 209.84375 165.976562 211.550781 C 166.429688 211.730469 166.871094 212.078125 167.359375 212.019531 C 167.910156 211.945312 168.328125 212.125 168.746094 212.414062 C 169.136719 212.6875 169.554688 212.902344 170.023438 213.035156 C 172.0625 213.597656 174.125 214.015625 176.214844 214.371094 C 178.121094 212.078125 180.496094 210.523438 183.441406 210.011719 C 185.816406 209.59375 188.15625 209.820312 190.410156 210.824219 C 192.34375 211.683594 193.871094 213.011719 195.195312 214.613281 C 195.277344 214.574219 195.359375 214.503906 195.457031 214.492188 C 198.820312 213.800781 202.183594 213.082031 205.488281 212.089844 C 207.566406 211.46875 209.703125 211.039062 211.609375 209.878906 C 214.710938 208.003906 217.777344 206.054688 220.710938 203.925781 C 222.90625 202.335938 225.042969 200.664062 227.046875 198.824219 C 228.550781 197.4375 229.984375 195.988281 231.320312 194.4375 C 232.152344 193.457031 232.882812 192.40625 233.742188 191.4375 C 233.667969 191.101562 233.621094 190.777344 233.585938 190.457031 Z M 233.585938 190.457031 " fill-opacity="1" fill-rule="nonzero"/><path fill="#e6ded4" d="M 223.875 242.269531 C 223.160156 242.136719 222.574219 242.484375 222.167969 243.023438 C 220.820312 244.851562 219.519531 246.726562 218.183594 248.582031 C 216.011719 251.582031 213.816406 254.566406 211.65625 257.570312 C 210.976562 258.511719 210.214844 259.410156 209.652344 260.4375 C 209.1875 261.296875 209.402344 262.097656 210.191406 262.683594 C 210.847656 263.175781 211.632812 263.042969 212.324219 262.398438 C 212.945312 261.8125 213.292969 261 213.902344 260.402344 C 213.996094 259.347656 214.367188 258.417969 215.070312 257.605469 C 215.773438 256.804688 216.679688 256.277344 217.492188 255.621094 C 217.347656 255.429688 217.5625 255.320312 217.636719 255.226562 C 218.71875 253.707031 219.816406 252.203125 220.902344 250.695312 C 222.25 248.832031 223.625 246.992188 224.886719 245.078125 C 225.140625 244.695312 225.390625 244.300781 225.339844 243.824219 C 225.257812 243.082031 224.636719 242.414062 223.875 242.269531 Z M 223.875 242.269531 " fill-opacity="1" fill-rule="nonzero"/><g clip-path="url(#66892f38e6)"><path fill="#703a44" d="M 244.488281 154.71875 C 246.445312 154.074219 248.390625 153.367188 250.359375 152.722656 C 255.644531 151 260.429688 148.300781 264.972656 145.179688 C 269.851562 141.835938 274.28125 137.902344 278.300781 133.550781 C 282.402344 129.117188 285.945312 124.253906 289.203125 119.160156 C 290.863281 116.566406 292.304688 113.828125 293.5 110.984375 C 294.871094 107.6875 295.898438 104.28125 296.886719 100.863281 C 297.816406 97.648438 298.378906 94.359375 298.9375 91.0625 C 299.128906 89.972656 298.855469 89.472656 297.804688 89.078125 C 296.160156 88.457031 294.429688 88.121094 292.710938 87.75 C 287.796875 86.675781 282.867188 85.71875 277.894531 84.988281 C 273.625 84.367188 269.316406 84.019531 264.996094 84.117188 C 258.472656 84.261719 251.980469 84.796875 245.492188 85.503906 C 238.308594 86.28125 231.390625 88.050781 224.660156 90.628906 C 223.195312 91.191406 221.703125 91.683594 220.320312 92.433594 C 220.164062 92.519531 220.03125 92.496094 219.878906 92.449219 C 216.882812 91.359375 213.816406 90.535156 210.703125 89.902344 C 206.695312 89.089844 202.664062 88.347656 198.605469 87.808594 C 195.707031 87.425781 192.785156 87.308594 189.863281 87.273438 C 184.097656 87.210938 178.324219 87.09375 172.585938 87.796875 C 167.789062 88.382812 163.042969 89.257812 158.316406 90.25 C 155 90.941406 151.78125 91.921875 148.617188 93.140625 C 147.960938 93.390625 147.617188 93.285156 147.152344 92.816406 C 145.398438 91 143.621094 89.207031 141.425781 87.90625 C 141.019531 87.667969 140.613281 87.402344 140.21875 87.140625 C 136.734375 84.859375 133.097656 82.886719 129.230469 81.332031 C 125.210938 79.707031 121.167969 78.1875 117.050781 76.8125 C 113.03125 75.464844 109 74.195312 104.847656 73.347656 C 97.890625 71.890625 90.816406 71.625 83.753906 71.304688 C 82.882812 71.269531 81.988281 71.363281 81.128906 71.066406 C 80.617188 71.066406 80.09375 71.066406 79.578125 71.066406 C 79.542969 71.101562 79.507812 71.160156 79.460938 71.171875 C 77.945312 71.589844 77.71875 71.914062 77.5625 73.835938 C 77.371094 76.226562 77.621094 78.617188 77.71875 80.996094 C 77.933594 86.507812 78.492188 91.992188 79.460938 97.429688 C 80.332031 102.390625 81.796875 107.171875 83.597656 111.871094 C 84.542969 114.34375 85.589844 116.769531 86.820312 119.125 C 91.460938 128.054688 97.007812 136.324219 104.261719 143.386719 C 107.066406 146.125 109.785156 148.945312 112.960938 151.277344 C 116.492188 153.871094 120.175781 156.199219 124.113281 158.136719 C 124.578125 158.363281 124.734375 158.617188 124.6875 159.128906 C 124.578125 160.3125 124.460938 161.519531 124.496094 162.703125 C 124.53125 164.292969 124.613281 165.882812 124.699219 167.472656 C 124.878906 170.53125 125.105469 173.589844 125.617188 176.617188 C 126.152344 179.792969 127.0625 182.855469 128.46875 185.757812 C 128.933594 186.726562 129.554688 187.613281 130.199219 188.472656 C 130.472656 188.832031 130.460938 189.09375 130.210938 189.476562 C 128.085938 192.703125 126.167969 196.050781 124.496094 199.527344 C 124.386719 199.742188 124.292969 199.945312 124.101562 200.113281 C 121.011719 202.753906 118.257812 205.742188 115.417969 208.636719 C 112.707031 211.398438 110.214844 214.335938 108.140625 217.613281 C 107.257812 219.011719 106.363281 220.398438 105.609375 221.867188 C 105.371094 222.34375 105.242188 222.464844 104.761719 222.070312 C 101.53125 219.417969 97.988281 217.277344 94.027344 215.890625 C 91.785156 215.113281 89.589844 214.996094 87.203125 215.605469 C 81.859375 216.964844 78.539062 220.386719 76.535156 225.332031 C 75.929688 226.828125 75.988281 228.453125 75.75 230.007812 C 75.726562 230.171875 75.820312 230.363281 75.628906 230.496094 C 75.628906 231.691406 75.628906 232.886719 75.628906 234.082031 C 75.84375 234.992188 75.84375 235.921875 75.976562 236.832031 C 76.789062 242.53125 78.21875 248.054688 80.582031 253.324219 C 82.632812 257.890625 85.414062 261.953125 88.980469 265.46875 C 91.507812 267.980469 93.917969 270.609375 96.855469 272.664062 C 98.609375 273.894531 100.398438 275.089844 102.378906 275.949219 C 104.90625 277.050781 107.542969 277.230469 110.25 276.835938 C 112.734375 276.464844 114.902344 275.414062 117.015625 274.144531 C 117.289062 273.992188 117.527344 273.765625 117.742188 273.535156 C 119.199219 272.089844 120.617188 270.621094 122.097656 269.199219 C 122.980469 268.347656 123.613281 267.355469 124.03125 266.222656 C 124.125 265.957031 124.246094 265.851562 124.53125 265.839844 C 125.332031 265.804688 126.117188 265.742188 126.90625 265.671875 C 127.179688 265.648438 127.289062 265.753906 127.40625 265.972656 C 131.867188 274.375 137.535156 281.902344 143.964844 288.871094 C 146.496094 291.609375 149.132812 294.273438 152.019531 296.664062 C 155.515625 299.542969 159.5 301.433594 163.804688 302.722656 C 166 303.382812 168.242188 303.824219 170.523438 304.003906 C 170.628906 304.015625 170.773438 303.980469 170.832031 304.121094 C 171.347656 304.121094 171.871094 304.121094 172.382812 304.121094 C 172.46875 304.003906 172.585938 304.027344 172.707031 304.015625 C 175.378906 303.800781 177.96875 303.214844 180.4375 302.152344 C 181.738281 301.589844 183.050781 301.015625 184.085938 300.035156 C 185.816406 298.398438 187.511719 296.699219 189.144531 294.96875 C 190.183594 293.867188 190.648438 292.433594 190.566406 290.964844 C 190.433594 288.703125 189.742188 286.539062 189.003906 284.425781 C 187.773438 280.898438 186.019531 277.625 184.121094 274.421875 C 183.65625 273.632812 183.203125 272.84375 182.703125 272.007812 C 185.6875 272.496094 188.550781 273 191.496094 272.757812 C 194.394531 272.519531 197.292969 272.328125 200.230469 271.804688 C 199.464844 273.394531 198.761719 274.886719 198.046875 276.371094 C 196.472656 279.621094 195.195312 282.992188 194.492188 286.539062 C 194.132812 288.320312 193.679688 290.101562 194.15625 291.957031 C 194.441406 293.054688 194.933594 294.035156 195.742188 294.847656 C 196.984375 296.089844 198.261719 297.285156 199.441406 298.578125 C 200.859375 300.128906 202.601562 301.160156 204.511719 301.945312 C 207.9375 303.359375 211.480469 304.015625 215.175781 303.417969 C 217.335938 303.070312 219.449219 302.496094 221.5 301.707031 C 224.054688 300.726562 226.5 299.519531 228.609375 297.753906 C 231.832031 295.050781 234.828125 292.085938 237.511719 288.859375 C 242.519531 282.847656 246.636719 276.238281 250.0625 269.1875 C 250.179688 268.933594 250.191406 268.613281 250.40625 268.445312 C 251.933594 269.964844 253.460938 271.445312 254.953125 272.964844 C 255.65625 273.679688 256.40625 274.300781 257.277344 274.804688 C 260.761719 276.789062 264.460938 277.648438 268.445312 276.882812 C 270.855469 276.417969 272.917969 275.164062 274.949219 273.882812 C 279.148438 271.230469 282.523438 267.632812 285.875 264.046875 C 290.097656 259.550781 292.890625 254.1875 294.789062 248.339844 C 295.957031 244.742188 296.839844 241.0625 297.351562 237.308594 C 297.722656 234.621094 297.925781 231.917969 297.496094 229.21875 C 297.234375 227.507812 296.71875 225.859375 296.160156 224.222656 C 294.574219 219.621094 291.410156 216.679688 286.710938 215.390625 C 285.886719 215.160156 285.039062 215.4375 284.21875 215.304688 C 283.15625 215.136719 282.117188 215.28125 281.089844 215.53125 C 277.023438 216.523438 273.480469 218.59375 270.117188 220.996094 C 268.160156 222.394531 266.5 224.101562 264.820312 225.800781 C 264.328125 226.289062 264.328125 226.289062 264.066406 225.679688 C 262.921875 223.109375 261.539062 220.683594 260.046875 218.292969 C 257.863281 214.804688 255.296875 211.625 252.398438 208.695312 C 252.03125 208.3125 251.648438 207.929688 251.46875 207.40625 C 249.847656 202.601562 247.414062 198.203125 244.800781 193.898438 C 243.378906 191.554688 241.851562 189.273438 240.324219 186.988281 C 240.160156 186.738281 240.148438 186.570312 240.3125 186.296875 C 241.136719 184.875 241.675781 183.332031 242.199219 181.789062 C 243.214844 178.765625 243.714844 175.648438 244 172.492188 C 244.335938 168.882812 244.597656 165.273438 244.527344 161.652344 C 244.476562 159.523438 244.335938 157.394531 244.132812 155.269531 C 244.144531 154.980469 244.15625 154.828125 244.488281 154.71875 Z M 240.730469 150.632812 C 239.871094 150.847656 239.324219 151.625 238.835938 152.363281 C 238.726562 152.53125 238.738281 152.734375 238.761719 152.949219 C 239.167969 155.792969 239.347656 158.652344 239.417969 161.519531 C 239.527344 165.773438 239.167969 170.019531 238.714844 174.25 C 238.703125 174.402344 238.644531 174.558594 238.597656 174.714844 C 238.464844 176.566406 238.09375 178.359375 237.582031 180.140625 C 236.960938 182.316406 236.292969 184.480469 235.136719 186.441406 C 235.027344 186.632812 235.078125 186.773438 235.183594 186.929688 C 235.375 187.230469 235.554688 187.539062 235.734375 187.839844 C 236.792969 189.25 237.738281 190.753906 238.667969 192.25 C 240.578125 195.285156 242.402344 198.355469 243.953125 201.582031 C 244.90625 203.566406 245.695312 205.625 246.457031 207.703125 C 247.136719 209.578125 247.960938 211.421875 248.582031 213.320312 C 249.117188 214.957031 249.667969 216.597656 250.109375 218.269531 C 250.503906 219.761719 250.585938 221.328125 250.753906 222.859375 C 250.96875 224.855469 251.21875 226.851562 251.289062 228.847656 C 251.398438 231.367188 251.550781 233.902344 251.421875 236.425781 C 251.347656 237.917969 251.347656 239.414062 251.253906 240.894531 C 251.097656 243.214844 250.921875 245.53125 250.667969 247.839844 C 250.382812 250.503906 250.023438 253.15625 249.558594 255.800781 C 249.429688 256.5625 249.273438 257.316406 249.128906 258.082031 C 249.105469 258.203125 249.082031 258.320312 249.070312 258.441406 C 249.011719 259.085938 249.261719 259.480469 249.773438 259.5625 C 250.300781 259.648438 250.695312 259.359375 250.8125 258.738281 C 251.074219 257.351562 251.347656 255.980469 251.550781 254.582031 C 251.898438 252.25 252.21875 249.90625 252.484375 247.5625 C 252.699219 245.664062 252.863281 243.761719 252.972656 241.863281 C 253.128906 239.066406 253.257812 236.257812 253.210938 233.449219 C 253.152344 230.042969 252.949219 226.660156 252.554688 223.277344 C 252.171875 219.992188 251.789062 216.691406 251.097656 213.453125 C 251.074219 213.34375 251.097656 213.226562 251.097656 213.035156 C 251.671875 213.511719 252.019531 214.097656 252.398438 214.636719 C 254.535156 217.613281 256.527344 220.683594 258.136719 223.984375 C 259.296875 226.335938 260.238281 228.800781 261.0625 231.285156 C 261.3125 232.050781 261.847656 232.550781 262.3125 233.125 C 262.753906 233.566406 263.113281 233.460938 263.519531 233.03125 C 264.042969 232.480469 264.582031 231.941406 264.996094 231.308594 C 266.5 229.003906 268.527344 227.234375 270.761719 225.667969 C 272.96875 224.113281 275.292969 222.8125 277.773438 221.746094 C 279.46875 221.019531 281.210938 220.445312 283.058594 220.371094 C 285.0625 220.289062 286.828125 221.03125 288.453125 222.164062 C 290.085938 223.3125 290.886719 225.058594 291.699219 226.792969 C 292.257812 228 292.484375 229.289062 292.496094 230.617188 C 292.722656 232.15625 292.53125 233.699219 292.449219 235.242188 C 292.03125 239.722656 291.03125 244.074219 289.644531 248.339844 C 287.773438 254.101562 284.980469 259.347656 280.914062 263.867188 C 279.351562 265.601562 277.476562 266.988281 275.554688 268.300781 C 273.886719 269.449219 272.167969 270.535156 270.246094 271.21875 C 266.691406 272.460938 263.183594 272.210938 259.722656 270.847656 C 258.710938 270.441406 257.742188 269.9375 256.800781 269.378906 C 255.011719 268.3125 254.402344 266.554688 254.082031 264.65625 C 254.035156 264.382812 254.023438 264.09375 254.046875 263.820312 C 254.152344 262.648438 253.710938 261.738281 252.757812 261.070312 C 252.460938 260.808594 252.148438 260.746094 251.71875 260.808594 C 251.003906 260.925781 250.265625 260.925781 249.523438 260.949219 C 249.226562 260.960938 249 261.058594 248.773438 261.238281 C 247.902344 261.917969 247.390625 262.828125 247.03125 263.867188 C 246.46875 265.515625 245.824219 267.140625 245.0625 268.71875 C 244.226562 270.597656 243.320312 272.425781 242.304688 274.207031 C 239.789062 278.582031 237.082031 282.847656 233.992188 286.851562 C 232.164062 289.21875 230.246094 291.488281 227.777344 293.222656 C 224.984375 295.183594 221.917969 296.558594 218.648438 297.476562 C 216.691406 298.027344 214.710938 298.421875 212.671875 298.457031 C 211.417969 298.492188 210.191406 298.386719 208.960938 298.121094 C 207.125 297.777344 205.359375 297.214844 203.675781 296.402344 C 202.351562 295.71875 200.921875 295.195312 200.0625 293.855469 C 199.953125 293.6875 199.882812 293.507812 199.800781 293.328125 C 198.976562 291.8125 198.953125 290.199219 199.214844 288.535156 C 199.789062 284.820312 200.921875 281.269531 202.449219 277.839844 C 204.285156 273.714844 206.324219 269.6875 208.769531 265.886719 C 209.070312 265.421875 209.128906 265.050781 208.664062 264.691406 C 208.617188 264.65625 208.578125 264.609375 208.542969 264.558594 C 207.695312 263.628906 207.671875 263.617188 206.625 264.226562 C 204.273438 265.601562 201.71875 266.378906 199.058594 266.808594 C 196.316406 267.25 193.535156 267.546875 190.769531 267.609375 C 186.089844 267.703125 181.523438 266.949219 177.191406 265.0625 C 176.429688 264.726562 175.652344 264.429688 174.972656 263.925781 C 174.722656 263.785156 174.53125 263.808594 174.304688 264.011719 C 173.839844 264.429688 173.386719 264.847656 173.039062 265.375 C 176.203125 269.605469 178.957031 274.074219 181.378906 278.761719 C 183.097656 282.070312 184.386719 285.535156 185.171875 289.207031 C 185.566406 291.058594 185.386719 292.78125 184.410156 294.417969 C 184.0625 295.003906 183.527344 295.300781 182.976562 295.625 C 181.867188 296.339844 180.675781 296.925781 179.421875 297.359375 C 177.644531 298.050781 175.796875 298.503906 173.898438 298.695312 C 172.144531 299.042969 170.390625 298.898438 168.648438 298.601562 C 167.003906 298.410156 165.40625 298.027344 163.828125 297.5625 C 159.523438 296.28125 155.550781 294.382812 152.03125 291.535156 C 148.988281 289.085938 146.507812 286.109375 144.074219 283.097656 C 141.246094 279.609375 138.585938 275.988281 136.140625 272.210938 C 135.351562 270.992188 134.566406 269.785156 133.933594 268.46875 C 132.65625 266.449219 131.664062 264.285156 130.6875 262.109375 C 130.339844 261.34375 129.722656 260.820312 129.089844 260.292969 C 128.957031 260.1875 128.828125 260.222656 128.695312 260.246094 C 126.429688 260.664062 124.113281 260.617188 121.824219 260.808594 C 121.40625 260.84375 121 260.902344 120.617188 261.058594 C 120.605469 261.09375 120.59375 261.140625 120.570312 261.164062 C 119.414062 261.929688 119.390625 263.113281 119.269531 264.34375 C 119.066406 266.605469 118.148438 268.445312 116 269.605469 C 113.425781 270.992188 110.714844 271.839844 107.816406 271.886719 C 105.765625 271.921875 103.75 271.492188 101.875 270.558594 C 99.0625 269.160156 96.507812 267.394531 94.132812 265.347656 C 91.507812 263.089844 89.5625 260.28125 87.796875 257.339844 C 85.339844 253.253906 83.742188 248.808594 82.5625 244.195312 C 81.808594 241.265625 81.1875 238.300781 80.9375 235.277344 C 80.699219 232.515625 80.496094 229.730469 81.5 227.078125 C 82.574219 224.222656 84.183594 221.820312 87.261719 220.71875 C 89.421875 219.941406 91.519531 220.15625 93.621094 220.851562 C 98 222.296875 101.839844 224.6875 105.359375 227.640625 C 105.46875 227.722656 105.5625 227.832031 105.671875 227.914062 C 106.492188 228.644531 106.492188 228.644531 107.351562 228.058594 C 108.042969 227.351562 108.472656 226.503906 108.855469 225.597656 C 109.894531 223.109375 111.253906 220.804688 112.671875 218.507812 C 114.878906 214.933594 117.492188 211.695312 120.414062 208.695312 C 121.632812 207.441406 122.863281 206.183594 124.234375 205.097656 C 124.386719 204.976562 124.519531 204.824219 124.804688 204.773438 C 124.542969 205.671875 124.292969 206.542969 124.042969 207.40625 C 122.921875 211.300781 122.132812 215.257812 121.539062 219.261719 C 120.941406 223.242188 120.582031 227.234375 120.535156 231.25 C 120.5 234.714844 120.65625 238.167969 121.058594 241.613281 C 121.621094 246.441406 122.609375 251.160156 124.292969 255.726562 C 124.351562 255.871094 124.386719 256.027344 124.460938 256.171875 C 124.710938 256.730469 125.152344 256.945312 125.652344 256.753906 C 126.140625 256.5625 126.320312 256.085938 126.105469 255.511719 C 125.5 253.875 124.960938 252.214844 124.519531 250.527344 C 123.757812 247.613281 123.230469 244.648438 122.847656 241.648438 C 122.503906 238.863281 122.335938 236.066406 122.324219 233.257812 C 122.300781 229.503906 122.457031 225.75 122.957031 222.011719 C 123.410156 218.664062 123.851562 215.316406 124.699219 212.054688 C 125.128906 210.394531 125.832031 208.804688 126.464844 207.203125 C 127.882812 203.617188 129.230469 200.007812 131.070312 196.601562 C 132.441406 194.066406 133.875 191.566406 135.519531 189.1875 C 135.675781 188.867188 135.496094 188.640625 135.328125 188.386719 C 135.136719 188.113281 134.984375 187.828125 134.804688 187.550781 C 133.777344 186.296875 133.167969 184.839844 132.609375 183.34375 C 131.140625 179.519531 130.496094 175.527344 130.140625 171.464844 C 129.914062 168.785156 129.78125 166.097656 129.699219 163.421875 C 129.625 161.195312 129.78125 158.972656 130.019531 156.761719 C 130.042969 156.511719 130.019531 156.261719 129.875 156.082031 C 129.28125 155.363281 128.683594 154.671875 127.730469 154.371094 C 124.699219 153.417969 121.929688 151.875 119.222656 150.238281 C 116.144531 148.371094 113.1875 146.328125 110.40625 144.035156 C 107.316406 141.488281 104.738281 138.464844 102.269531 135.332031 C 99.167969 131.410156 96.496094 127.191406 94.015625 122.855469 C 92.152344 119.578125 90.484375 116.21875 89.085938 112.71875 C 86.488281 106.179688 84.660156 99.4375 83.851562 92.433594 C 83.347656 88.109375 82.917969 83.769531 82.789062 79.40625 C 82.777344 78.894531 82.644531 78.378906 82.703125 77.867188 C 82.714844 77.816406 82.742188 77.757812 82.789062 77.636719 C 83.410156 78.222656 83.980469 78.785156 84.578125 79.324219 C 88.550781 82.933594 92.929688 86.003906 97.402344 88.933594 C 102.675781 92.386719 108.066406 95.636719 113.292969 99.164062 C 113.507812 99.308594 113.710938 99.453125 113.855469 99.726562 C 115.203125 102.296875 115.691406 105.128906 116.40625 107.878906 C 117.289062 111.296875 118.125 114.726562 119.316406 118.050781 C 119.367188 118.191406 119.425781 118.324219 119.355469 118.503906 C 119.019531 119.351562 118.972656 120.25 118.960938 121.144531 C 118.949219 123.175781 118.902344 125.207031 119.066406 127.230469 C 119.414062 131.28125 120.582031 134.972656 123.542969 137.925781 C 123.636719 138.019531 123.730469 138.128906 123.839844 138.210938 C 124.148438 138.464844 124.472656 138.488281 124.746094 138.1875 C 125.019531 137.902344 124.984375 137.566406 124.710938 137.28125 C 124.101562 136.648438 123.53125 135.988281 123.015625 135.285156 C 121.511719 133.191406 120.820312 130.8125 120.488281 128.304688 C 120.175781 125.902344 120.214844 123.5 120.25 121.097656 C 120.25 121.011719 120.261719 120.917969 120.273438 120.667969 C 120.988281 122.28125 121.667969 123.726562 122.503906 125.101562 C 123.445312 126.65625 124.53125 128.101562 125.832031 129.367188 C 126.070312 129.59375 126.308594 129.808594 126.667969 129.679688 C 127.15625 129.5 127.25 128.949219 126.808594 128.53125 C 124.613281 126.402344 123.101562 123.820312 121.882812 121.0625 C 120.296875 117.441406 119.1875 113.640625 118.21875 109.8125 C 117.492188 106.910156 116.800781 104.003906 115.929688 101.136719 C 115.90625 101.113281 115.871094 101.066406 115.871094 101.054688 C 115.917969 100.980469 115.953125 101.027344 116 101.066406 C 117.445312 101.949219 118.78125 102.976562 120.140625 103.980469 C 123.410156 106.417969 126.609375 108.941406 129.421875 111.929688 C 130.996094 113.601562 132.417969 115.382812 133.394531 117.488281 C 133.609375 117.953125 133.789062 118.433594 133.875 118.945312 C 133.933594 119.375 134.148438 119.746094 134.636719 119.675781 C 135.148438 119.601562 135.234375 119.195312 135.160156 118.765625 C 134.933594 117.425781 134.300781 116.257812 133.585938 115.121094 C 131.679688 112.109375 129.160156 109.660156 126.488281 107.351562 C 120.023438 101.804688 112.863281 97.242188 105.707031 92.6875 C 100.613281 89.449219 95.46875 86.269531 90.636719 82.621094 C 88.335938 80.890625 86.105469 79.050781 84.066406 77.003906 C 83.910156 76.851562 83.71875 76.742188 83.648438 76.503906 C 83.910156 76.3125 84.21875 76.347656 84.507812 76.359375 C 91.152344 76.730469 97.808594 76.96875 104.359375 78.273438 C 107.769531 78.953125 111.109375 79.921875 114.425781 80.984375 C 119.449219 82.585938 124.375 84.402344 129.257812 86.386719 C 133.085938 87.929688 136.6875 89.890625 140.148438 92.136719 C 141.878906 93.261719 143.621094 94.371094 145.148438 95.792969 C 145.625 96.234375 145.957031 96.773438 146.363281 97.253906 C 147.472656 98.554688 147.472656 98.601562 149.011719 98.027344 C 155.238281 95.675781 161.753906 94.527344 168.28125 93.464844 C 172.5625 92.769531 176.859375 92.257812 181.199219 92.363281 C 181.59375 92.339844 181.988281 92.316406 182.382812 92.304688 C 185.972656 92.183594 189.550781 92.339844 193.128906 92.410156 C 195.550781 92.519531 197.960938 92.757812 200.359375 93.117188 C 204.453125 93.714844 208.507812 94.480469 212.539062 95.363281 C 215.011719 95.902344 217.421875 96.605469 219.792969 97.480469 C 219.949219 97.539062 220.082031 97.632812 220.296875 97.515625 C 221.632812 96.761719 223.097656 96.296875 224.53125 95.746094 C 231.03125 93.273438 237.691406 91.429688 244.632812 90.679688 C 249.785156 90.117188 254.941406 89.578125 260.128906 89.363281 C 262.195312 89.28125 264.257812 89.066406 266.320312 89.078125 C 268.421875 89.089844 270.535156 89.230469 272.632812 89.433594 C 278.417969 89.972656 284.121094 91 289.8125 92.28125 C 289.132812 92.398438 288.453125 92.53125 287.761719 92.625 C 274.960938 94.394531 262.898438 98.375 251.671875 104.816406 C 246.21875 107.9375 241.066406 111.464844 236.460938 115.765625 C 235.242188 116.914062 234.050781 118.085938 232.976562 119.375 C 232.703125 119.699219 232.5 120.046875 232.871094 120.425781 C 233.167969 120.738281 233.585938 120.679688 233.945312 120.261719 C 239.300781 114.117188 245.921875 109.609375 252.925781 105.605469 C 252.996094 105.570312 253.066406 105.546875 253.140625 105.523438 C 253.199219 105.453125 253.269531 105.378906 253.355469 105.476562 C 253.367188 105.488281 253.28125 105.570312 253.246094 105.628906 C 250.515625 110.003906 249.285156 114.953125 247.804688 119.804688 C 246.839844 122.972656 246.078125 126.210938 244.539062 129.175781 C 243.75 130.707031 242.832031 132.140625 241.601562 133.359375 C 241.304688 133.660156 241.066406 134.003906 241.4375 134.398438 C 241.816406 134.804688 242.199219 134.628906 242.519531 134.304688 C 244.058594 132.738281 245.195312 130.910156 246.125 128.925781 C 246.433594 128.269531 246.707031 127.585938 247.03125 126.835938 C 247.328125 127.753906 247.351562 128.652344 247.414062 129.511719 C 247.566406 132.128906 247.578125 134.757812 246.886719 137.328125 C 246.386719 139.179688 245.597656 140.878906 244.085938 142.132812 C 243.785156 142.382812 243.738281 142.71875 243.976562 143.042969 C 244.226562 143.363281 244.550781 143.363281 244.871094 143.160156 C 245.324219 142.863281 245.683594 142.457031 246.015625 142.039062 C 247.472656 140.234375 248.164062 138.128906 248.511719 135.871094 C 248.808594 133.957031 248.890625 132.035156 248.761719 130.109375 C 248.675781 128.914062 248.558594 127.730469 248.367188 126.558594 C 248.320312 126.210938 248.152344 125.890625 247.734375 125.878906 C 247.390625 125.878906 247.402344 125.710938 247.484375 125.460938 C 248.953125 120.785156 250.132812 116.027344 251.875 111.441406 C 252.445312 109.910156 253.066406 108.402344 253.9375 107.015625 C 254.273438 106.492188 254.640625 106 255.121094 105.59375 C 255.394531 105.355469 255.585938 105.046875 255.335938 104.710938 C 255.109375 104.386719 255.285156 104.328125 255.523438 104.207031 C 257.53125 103.15625 259.570312 102.175781 261.644531 101.28125 C 267.40625 98.78125 273.324219 96.796875 279.46875 95.472656 C 282.738281 94.765625 286.03125 94.203125 289.347656 93.726562 C 290.5625 93.546875 291.78125 93.425781 292.996094 93.210938 C 293.449219 93.128906 293.449219 93.25 293.390625 93.617188 C 292.855469 96.738281 292.078125 99.808594 291.183594 102.847656 C 290.277344 105.917969 289.265625 108.953125 287.976562 111.894531 C 286.792969 114.558594 285.375 117.082031 283.835938 119.542969 C 280.996094 124.074219 277.511719 128.078125 273.839844 131.914062 C 269.589844 136.335938 264.914062 140.257812 259.628906 143.375 C 256.835938 145.027344 253.855469 146.304688 250.800781 147.390625 C 247.460938 148.609375 244.144531 149.769531 240.730469 150.632812 Z M 240.730469 150.632812 " fill-opacity="1" fill-rule="nonzero"/></g><path fill="#703a44" d="M 165.226562 131.878906 C 164.699219 129.558594 163.839844 127.382812 162.136719 125.664062 C 160.121094 123.632812 157.636719 123.476562 155.394531 125.234375 C 154.273438 126.117188 153.511719 127.277344 152.925781 128.542969 C 151.433594 131.78125 151.113281 135.199219 151.589844 138.691406 C 151.933594 141.226562 152.734375 143.613281 154.40625 145.625 C 156.421875 148.050781 159.296875 148.625 161.777344 146.507812 C 162.433594 145.945312 162.972656 145.289062 163.425781 144.558594 C 165.046875 141.917969 165.632812 139.011719 165.644531 135.953125 C 165.644531 134.589844 165.523438 133.230469 165.226562 131.878906 Z M 156.71875 134.949219 C 154.835938 134.960938 153.234375 133.371094 153.210938 131.472656 C 153.1875 129.582031 154.785156 127.980469 156.683594 127.96875 C 158.59375 127.957031 160.167969 129.535156 160.179688 131.449219 C 160.191406 133.359375 158.628906 134.949219 156.71875 134.949219 Z M 156.71875 134.949219 " fill-opacity="1" fill-rule="nonzero"/><path fill="#703a44" d="M 218.921875 125.664062 C 216.90625 123.632812 214.414062 123.476562 212.183594 125.234375 C 211.0625 126.117188 210.285156 127.265625 209.714844 128.542969 C 207.960938 132.476562 207.757812 136.539062 208.78125 140.675781 C 209.296875 142.753906 210.179688 144.65625 211.707031 146.195312 C 213.710938 148.191406 216.167969 148.335938 218.410156 146.628906 C 219.148438 146.066406 219.722656 145.347656 220.199219 144.570312 C 221.824219 141.929688 222.40625 139.027344 222.417969 135.964844 C 222.417969 134.601562 222.324219 133.265625 222.023438 131.9375 C 221.488281 129.59375 220.640625 127.40625 218.921875 125.664062 Z M 213.433594 134.925781 C 211.527344 134.890625 210.011719 133.335938 210.023438 131.4375 C 210.035156 129.511719 211.621094 127.945312 213.53125 127.96875 C 215.453125 127.992188 217.027344 129.605469 216.980469 131.507812 C 216.917969 133.46875 215.367188 134.960938 213.433594 134.925781 Z M 213.433594 134.925781 " fill-opacity="1" fill-rule="nonzero"/><path fill="#703a44" d="M 208.007812 170.375 C 206.359375 171.714844 204.59375 172.851562 202.625 173.628906 C 198.414062 175.277344 194.035156 176.136719 189.515625 176.257812 C 188.667969 176.28125 188.621094 176.257812 188.632812 175.421875 C 188.65625 174.046875 188.714844 172.671875 188.726562 171.296875 C 188.726562 170.972656 188.847656 170.84375 189.144531 170.78125 C 189.730469 170.664062 190.277344 170.398438 190.78125 170.089844 C 193.859375 168.164062 196.613281 165.882812 198.808594 162.964844 C 199.15625 162.511719 199.441406 162.023438 199.441406 161.449219 C 199.40625 158.449219 198.523438 157.039062 196.136719 156.273438 C 190.53125 154.457031 184.910156 154.191406 179.230469 156.117188 C 176.808594 156.941406 175.378906 158.375 175.078125 160.921875 C 175.078125 160.945312 175.066406 160.957031 175.066406 160.980469 C 174.960938 161.414062 175.042969 161.804688 175.28125 162.175781 C 176.308594 163.765625 177.382812 165.332031 178.824219 166.574219 C 180.878906 168.34375 182.871094 170.183594 185.625 170.832031 C 185.914062 170.902344 185.886719 171.070312 185.886719 171.273438 C 185.875 172.765625 185.851562 174.261719 185.875 175.753906 C 185.875 176.183594 185.710938 176.292969 185.316406 176.28125 C 184.207031 176.246094 183.097656 176.257812 181.988281 176.136719 C 178.660156 175.789062 175.402344 175.132812 172.242188 174.011719 C 169.878906 173.160156 167.753906 171.90625 165.820312 170.304688 C 165.308594 169.886719 164.738281 169.789062 164.164062 170.089844 C 163.640625 170.351562 163.4375 170.832031 163.472656 171.429688 C 163.507812 172.097656 163.984375 172.445312 164.414062 172.800781 C 166.132812 174.25 168.042969 175.359375 170.105469 176.246094 C 171.25 176.734375 172.46875 177.035156 173.625 177.511719 C 173.804688 177.535156 173.980469 177.546875 174.148438 177.59375 C 177.941406 178.574219 181.796875 179.195312 185.734375 179.101562 C 186.117188 179.089844 186.257812 179.183594 186.257812 179.589844 C 186.257812 181.636719 186.304688 183.691406 186.34375 185.734375 C 186.4375 191.089844 186.449219 196.445312 186.496094 201.800781 C 186.496094 201.988281 186.507812 202.207031 186.570312 202.382812 C 186.675781 202.730469 186.9375 202.898438 187.296875 202.886719 C 187.65625 202.875 187.90625 202.683594 188 202.347656 C 188.046875 202.15625 188.046875 201.953125 188.046875 201.761719 C 188.011719 199.515625 188.011719 197.269531 187.964844 195.023438 C 187.855469 189.929688 187.855469 184.828125 187.796875 179.734375 C 187.796875 179.246094 187.90625 179.078125 188.417969 179.101562 C 190.148438 179.183594 191.867188 179.042969 193.582031 178.816406 C 196.160156 178.480469 198.691406 177.929688 201.195312 177.226562 C 201.433594 177.140625 201.671875 177.046875 201.921875 176.960938 C 204.859375 175.980469 207.554688 174.570312 209.867188 172.503906 C 210.585938 171.859375 210.679688 170.996094 210.15625 170.398438 C 209.582031 169.765625 208.769531 169.765625 208.007812 170.375 Z M 208.007812 170.375 " fill-opacity="1" fill-rule="nonzero"/><path fill="#da828f" d="M 292.53125 230.628906 C 291.746094 229.875 290.863281 229.371094 289.730469 229.410156 C 288.261719 229.457031 287.007812 230.375 286.519531 231.824219 C 286.054688 233.199219 286.542969 234.714844 287.773438 235.707031 C 288.796875 236.53125 290.480469 236.617188 291.636719 235.886719 C 291.9375 235.695312 292.210938 235.46875 292.507812 235.265625 C 292.566406 233.722656 292.757812 232.183594 292.53125 230.628906 Z M 292.53125 230.628906 " fill-opacity="1" fill-rule="nonzero"/><path fill="#da828f" d="M 193.558594 178.816406 C 191.84375 179.042969 190.125 179.183594 188.394531 179.101562 C 187.882812 179.078125 187.773438 179.246094 187.773438 179.734375 C 187.832031 184.828125 187.832031 189.929688 187.941406 195.023438 C 187.988281 197.269531 187.988281 199.515625 188.023438 201.761719 C 188.023438 201.964844 188.035156 202.167969 187.976562 202.347656 C 187.882812 202.683594 187.628906 202.886719 187.273438 202.886719 C 186.914062 202.898438 186.652344 202.71875 186.542969 202.382812 C 186.484375 202.207031 186.472656 201.988281 186.472656 201.800781 C 186.425781 196.445312 186.414062 191.089844 186.316406 185.734375 C 186.28125 183.691406 186.234375 181.636719 186.234375 179.589844 C 186.234375 179.183594 186.089844 179.089844 185.710938 179.101562 C 181.773438 179.195312 177.929688 178.574219 174.125 177.59375 C 173.957031 177.546875 173.769531 177.535156 173.601562 177.511719 C 173.589844 177.75 173.554688 177.988281 173.554688 178.21875 C 173.566406 180.226562 173.625 182.234375 173.792969 184.230469 C 174.007812 186.800781 174.363281 189.355469 175.019531 191.855469 C 175.925781 195.25 177.371094 198.355469 180.066406 200.734375 C 181.402344 201.90625 182.929688 202.71875 184.695312 203.03125 C 186.042969 203.269531 187.390625 203.078125 188.738281 203.136719 C 190.242188 203.199219 191.628906 202.695312 192.914062 201.953125 C 195.503906 200.472656 197.164062 198.164062 198.378906 195.511719 C 199.941406 192.105469 200.492188 188.460938 200.871094 184.789062 C 201.125 182.28125 201.171875 179.746094 201.148438 177.226562 C 198.664062 177.929688 196.136719 178.480469 193.558594 178.816406 Z M 193.558594 178.816406 " fill-opacity="1" fill-rule="nonzero"/><path fill="#da828f" d="M 106.625 252.964844 C 102.664062 252.980469 99.527344 256.015625 99.550781 260.042969 C 99.574219 264.046875 102.640625 267.035156 106.566406 267.058594 C 110.417969 267.082031 113.640625 264.140625 113.652344 259.996094 C 113.640625 255.992188 110.441406 253.015625 106.625 252.964844 Z M 106.625 252.964844 " fill-opacity="1" fill-rule="nonzero"/><path fill="#da828f" d="M 95.804688 225.175781 C 93.609375 225.175781 91.699219 227.054688 91.757812 229.265625 C 91.820312 231.511719 93.359375 233.328125 95.804688 233.328125 C 98.261719 233.328125 99.753906 231.5 99.859375 229.265625 C 99.859375 227.054688 98 225.175781 95.804688 225.175781 Z M 95.804688 225.175781 " fill-opacity="1" fill-rule="nonzero"/><path fill="#da828f" d="M 85.628906 229.695312 C 83.742188 229.683594 82.214844 231.238281 82.203125 233.089844 C 82.191406 235.015625 83.753906 236.617188 85.664062 236.566406 C 87.691406 236.519531 89.136719 234.871094 89.027344 233.136719 C 89.136719 231.34375 87.621094 229.707031 85.628906 229.695312 Z M 85.628906 229.695312 " fill-opacity="1" fill-rule="nonzero"/><path fill="#da828f" d="M 104.476562 239.664062 C 106.160156 239.652344 107.363281 238.253906 107.269531 236.867188 C 107.398438 235.242188 105.96875 233.988281 104.511719 233.972656 C 102.925781 233.960938 101.648438 235.195312 101.636719 236.769531 C 101.636719 238.398438 102.867188 239.675781 104.476562 239.664062 Z M 104.476562 239.664062 " fill-opacity="1" fill-rule="nonzero"/><path fill="#da828f" d="M 268.886719 252.667969 C 264.808594 252.667969 261.847656 255.789062 261.777344 259.730469 C 261.703125 263.628906 264.925781 266.84375 268.828125 266.855469 C 272.765625 266.867188 275.960938 263.722656 275.9375 259.804688 C 275.914062 255.847656 272.90625 252.679688 268.886719 252.667969 Z M 268.886719 252.667969 " fill-opacity="1" fill-rule="nonzero"/><path fill="#da828f" d="M 279.636719 224.902344 C 277.40625 224.914062 275.566406 226.765625 275.566406 229.027344 C 275.566406 231.308594 277.355469 233.125 279.625 233.136719 C 281.878906 233.148438 283.714844 231.320312 283.726562 229.0625 C 283.738281 226.765625 281.890625 224.890625 279.636719 224.902344 Z M 279.636719 224.902344 " fill-opacity="1" fill-rule="nonzero"/><path fill="#da828f" d="M 270.976562 239.472656 C 272.585938 239.472656 273.898438 238.167969 273.898438 236.554688 C 273.898438 235.015625 272.5625 233.710938 270.976562 233.722656 C 269.398438 233.722656 268.0625 235.050781 268.085938 236.59375 C 268.113281 238.195312 269.398438 239.472656 270.976562 239.472656 Z M 270.976562 239.472656 " fill-opacity="1" fill-rule="nonzero"/><path fill="#fef9ea" d="M 232.058594 272.113281 C 229.96875 272.460938 227.859375 272.710938 225.757812 272.757812 C 223.550781 272.808594 221.40625 272.402344 219.589844 270.894531 C 217.289062 268.984375 215.558594 266.699219 214.519531 263.902344 C 214.101562 262.78125 213.875 261.609375 213.914062 260.402344 C 213.316406 261.011719 212.96875 261.8125 212.335938 262.398438 C 211.644531 263.042969 210.859375 263.175781 210.203125 262.683594 C 209.414062 262.097656 209.199219 261.296875 209.664062 260.4375 C 210.226562 259.410156 210.988281 258.511719 211.667969 257.570312 C 213.839844 254.566406 216.023438 251.582031 218.195312 248.582031 C 219.53125 246.738281 220.832031 244.863281 222.179688 243.023438 C 222.574219 242.484375 223.171875 242.125 223.886719 242.269531 C 224.636719 242.414062 225.269531 243.082031 225.355469 243.8125 C 225.414062 244.289062 225.152344 244.695312 224.898438 245.066406 C 223.636719 246.992188 222.265625 248.832031 220.914062 250.683594 C 219.828125 252.191406 218.734375 253.695312 217.648438 255.214844 C 217.574219 255.308594 217.371094 255.417969 217.503906 255.609375 C 221.023438 253.5625 224.792969 251.988281 228.230469 249.789062 C 229.625 248.890625 230.878906 247.828125 232.058594 246.667969 C 234.945312 243.847656 237.726562 240.929688 240.109375 237.667969 C 240.671875 236.902344 241.171875 236.078125 241.664062 235.265625 C 242.722656 233.507812 242.628906 231.703125 241.722656 229.933594 C 240.921875 228.367188 239.957031 226.933594 238.558594 225.8125 C 237.164062 224.699219 236.402344 224.699219 235.015625 225.929688 C 234.074219 226.777344 233.144531 227.652344 232.203125 228.5 C 231.964844 228.714844 231.710938 228.90625 231.4375 229.074219 C 230.996094 229.359375 230.496094 229.433594 230.03125 229.167969 C 229.542969 228.894531 229.398438 228.417969 229.433594 227.890625 C 229.515625 226.816406 229.816406 225.789062 230.101562 224.757812 C 231.082031 221.1875 232.214844 217.648438 233.0625 214.039062 C 233.644531 211.574219 234.132812 209.089844 234.359375 206.554688 C 234.46875 205.382812 234.527344 204.214844 234.515625 203.054688 C 234.503906 201.035156 234.433594 199.015625 234.242188 196.996094 C 234.109375 195.535156 234.003906 194.078125 233.847656 192.621094 C 233.8125 192.226562 233.765625 191.832031 233.714844 191.4375 C 232.871094 192.40625 232.140625 193.457031 231.292969 194.4375 C 229.957031 195.988281 228.527344 197.4375 227.023438 198.824219 C 225.019531 200.664062 222.882812 202.335938 220.6875 203.925781 C 217.753906 206.054688 214.6875 208.003906 211.585938 209.878906 C 209.675781 211.039062 207.542969 211.46875 205.464844 212.089844 C 202.171875 213.082031 198.808594 213.800781 195.433594 214.492188 C 195.335938 214.515625 195.265625 214.574219 195.171875 214.613281 C 196.671875 216.65625 197.484375 218.960938 197.53125 221.484375 C 197.59375 224.1875 196.828125 226.671875 195.195312 228.835938 C 193.441406 231.164062 191.136719 232.707031 188.285156 233.425781 C 187.761719 233.554688 187.640625 233.4375 187.628906 232.910156 C 187.582031 231.238281 187.488281 229.574219 187.535156 227.902344 C 187.558594 227.054688 187.617188 226.195312 187.640625 225.34375 C 187.65625 225.09375 187.796875 224.949219 187.929688 224.785156 C 188.621094 223.851562 188.703125 222.835938 188.25 221.796875 C 187.785156 220.730469 186.867188 220.207031 185.757812 220.144531 C 184.851562 220.097656 183.644531 220.613281 183.121094 221.757812 C 182.644531 222.8125 182.75 224.136719 183.527344 224.855469 C 184.0625 225.355469 184.21875 225.882812 184.195312 226.589844 C 184.148438 228.203125 184.195312 229.816406 184.171875 231.429688 C 184.171875 232.039062 184.097656 232.660156 184.074219 233.269531 C 184.0625 233.6875 183.800781 233.628906 183.539062 233.582031 C 181.664062 233.199219 179.933594 232.492188 178.421875 231.320312 C 176.082031 229.515625 174.542969 227.199219 173.933594 224.304688 C 173.171875 220.660156 173.96875 217.359375 176.1875 214.382812 C 174.113281 214.027344 172.039062 213.609375 169.996094 213.046875 C 169.53125 212.914062 169.113281 212.699219 168.722656 212.425781 C 168.304688 212.136719 167.886719 211.96875 167.335938 212.03125 C 166.847656 212.089844 166.40625 211.742188 165.953125 211.5625 C 161.574219 209.855469 157.496094 207.558594 153.628906 204.917969 C 151.71875 203.605469 149.90625 202.179688 148.175781 200.628906 C 147.59375 200.101562 147.054688 199.515625 146.496094 198.964844 C 146.246094 200.136719 146.328125 201.34375 146.304688 202.527344 C 146.28125 203.832031 146.363281 205.144531 146.460938 206.449219 C 146.699219 209.652344 147.402344 212.757812 148.203125 215.84375 C 149.023438 219.023438 149.992188 222.175781 150.875 225.34375 C 151.078125 226.050781 151.230469 226.765625 151.351562 227.484375 C 151.457031 228.105469 151.433594 228.761719 150.824219 229.144531 C 150.230469 229.527344 149.644531 229.324219 149.121094 228.917969 C 148.402344 228.382812 147.746094 227.769531 147.117188 227.136719 C 146.449219 226.480469 145.753906 225.859375 144.96875 225.34375 C 144.253906 224.878906 143.558594 224.867188 142.867188 225.34375 C 141.152344 226.527344 139.96875 228.140625 139.074219 229.996094 C 138.703125 230.769531 138.429688 231.570312 138.371094 232.433594 C 138.273438 233.84375 138.980469 235.003906 139.671875 236.136719 C 140.910156 238.15625 142.425781 239.960938 144.015625 241.71875 C 145.363281 243.214844 146.746094 244.660156 148.152344 246.09375 C 150.8125 248.820312 154 250.753906 157.363281 252.464844 C 159.535156 253.578125 161.777344 254.554688 163.792969 255.953125 C 164.628906 256.527344 165.453125 257.101562 166.046875 257.949219 C 167.015625 259.335938 167.039062 260.84375 166.703125 262.398438 C 166.15625 265.003906 164.820312 267.179688 163.066406 269.125 C 161.910156 270.417969 160.574219 271.515625 158.9375 272.175781 C 158.019531 272.542969 157.054688 272.617188 156.085938 272.664062 C 153.175781 272.796875 150.300781 272.339844 147.4375 271.863281 C 144.429688 271.363281 141.449219 270.703125 138.5625 269.734375 C 137.035156 269.234375 135.496094 268.816406 133.933594 268.480469 C 134.566406 269.796875 135.351562 271.003906 136.140625 272.222656 C 138.585938 276 141.246094 279.621094 144.074219 283.109375 C 146.507812 286.121094 148.988281 289.097656 152.03125 291.546875 C 155.5625 294.394531 159.535156 296.292969 163.828125 297.574219 C 165.417969 298.039062 167.015625 298.421875 168.648438 298.613281 C 168.554688 298.160156 168.160156 297.941406 167.875 297.667969 C 164.773438 294.632812 162.957031 290.890625 161.800781 286.78125 C 161.5625 285.941406 161.933594 285.117188 162.636719 284.652344 C 163.601562 284.019531 164.75 284.796875 165.058594 285.691406 C 165.355469 286.550781 165.582031 287.4375 165.917969 288.285156 C 166.824219 290.617188 168.042969 292.742188 169.722656 294.621094 C 170.941406 295.960938 172.324219 297.105469 173.660156 298.3125 C 173.78125 298.421875 173.898438 298.527344 173.910156 298.707031 C 175.808594 298.503906 177.65625 298.050781 179.433594 297.371094 C 179.421875 296.914062 179.375 296.449219 179.398438 295.996094 C 179.53125 293.449219 178.636719 291.191406 177.40625 289.050781 C 176.308594 287.136719 175.117188 285.285156 173.96875 283.410156 C 173.097656 281.976562 173.898438 280.945312 174.960938 280.636719 C 175.519531 280.46875 176.417969 280.804688 176.761719 281.402344 C 178.207031 283.910156 179.949219 286.253906 181.199219 288.871094 C 182.167969 290.867188 182.847656 292.945312 182.859375 295.207031 C 182.859375 295.363281 182.835938 295.527344 182.988281 295.636719 C 183.539062 295.3125 184.0625 295.015625 184.421875 294.429688 C 185.398438 292.792969 185.578125 291.070312 185.183594 289.21875 C 184.398438 285.5625 183.121094 282.082031 181.390625 278.773438 C 178.957031 274.097656 176.203125 269.617188 173.050781 265.386719 C 172.3125 265.46875 172 264.894531 171.65625 264.441406 C 170.117188 262.398438 168.625 260.328125 167.109375 258.273438 C 164.269531 254.4375 161.40625 250.613281 158.808594 246.609375 C 158.519531 246.164062 158.234375 245.699219 158.007812 245.210938 C 157.589844 244.300781 157.9375 243.320312 158.808594 242.878906 C 159.59375 242.472656 160.488281 242.746094 161.003906 243.585938 C 163.746094 248.078125 166.957031 252.226562 170.070312 256.457031 C 171.621094 258.558594 173.242188 260.605469 174.664062 262.804688 C 174.890625 263.148438 174.960938 263.519531 174.984375 263.925781 C 175.664062 264.417969 176.441406 264.726562 177.203125 265.0625 C 181.535156 266.949219 186.089844 267.691406 190.78125 267.609375 C 193.558594 267.558594 196.328125 267.261719 199.070312 266.808594 C 201.730469 266.378906 204.285156 265.601562 206.636719 264.226562 C 207.683594 263.605469 207.707031 263.628906 208.554688 264.558594 C 208.59375 264.609375 208.628906 264.65625 208.675781 264.691406 C 209.140625 265.050781 209.082031 265.421875 208.78125 265.886719 C 206.335938 269.6875 204.296875 273.714844 202.460938 277.839844 C 200.933594 281.269531 199.800781 284.820312 199.226562 288.535156 C 198.976562 290.199219 198.988281 291.8125 199.8125 293.328125 C 200.003906 293.078125 199.917969 292.792969 199.90625 292.527344 C 199.789062 288.261719 201.183594 284.425781 203.199219 280.757812 C 203.59375 280.039062 203.976562 279.320312 204.5 278.699219 C 204.941406 278.175781 205.488281 277.730469 206.230469 277.886719 C 207.542969 278.136719 208.054688 279.632812 207.242188 280.792969 C 205.3125 283.503906 204.09375 286.515625 203.523438 289.792969 C 203.222656 291.476562 203.355469 293.1875 203.570312 294.882812 C 203.628906 295.386719 203.808594 295.886719 203.699219 296.414062 C 205.382812 297.226562 207.148438 297.777344 208.984375 298.132812 C 210.105469 295.730469 210.488281 293.078125 211.503906 290.640625 C 212.160156 289.085938 212.804688 287.507812 213.996094 286.265625 C 214.949219 285.261719 216.550781 285.703125 216.917969 287.03125 C 217.0625 287.558594 216.859375 288 216.585938 288.371094 C 214.820312 290.808594 214.054688 293.640625 213.28125 296.484375 C 213.101562 297.15625 212.730469 297.765625 212.683594 298.46875 C 214.722656 298.421875 216.703125 298.039062 218.660156 297.488281 C 221.929688 296.558594 224.996094 295.195312 227.789062 293.234375 C 230.269531 291.5 232.179688 289.230469 234.003906 286.863281 C 237.09375 282.859375 239.800781 278.605469 242.320312 274.21875 C 243.34375 272.449219 244.25 270.609375 245.074219 268.730469 C 244.285156 268.863281 243.59375 269.292969 242.84375 269.542969 C 239.359375 270.726562 235.734375 271.515625 232.058594 272.113281 Z M 232.058594 272.113281 " fill-opacity="1" fill-rule="nonzero"/><path fill="#fef9ea" d="M 134.804688 187.636719 C 134.984375 187.910156 135.136719 188.195312 135.328125 188.472656 C 135.496094 188.722656 135.6875 188.949219 135.519531 189.273438 C 136.222656 191.363281 137.894531 192.570312 139.550781 193.816406 C 141.6875 195.40625 143.953125 196.777344 146.28125 198.070312 C 146.363281 198.117188 146.433594 198.1875 146.519531 198.25 C 147.367188 198.558594 148.128906 199.027344 148.929688 199.410156 C 152.496094 201.117188 156.207031 202.445312 160.011719 203.519531 C 163.425781 204.476562 166.882812 205.207031 170.367188 205.753906 C 172.179688 206.042969 174.007812 206.234375 175.832031 206.402344 C 179.671875 206.757812 183.515625 206.808594 187.355469 206.722656 C 189.730469 206.675781 192.09375 206.53125 194.453125 206.292969 C 199.121094 205.816406 203.710938 204.953125 208.246094 203.757812 C 211.847656 202.804688 215.367188 201.582031 218.78125 200.066406 C 222.179688 198.546875 225.414062 196.742188 228.46875 194.617188 C 230.089844 193.480469 231.675781 192.296875 233.0625 190.851562 C 233.203125 190.695312 233.335938 190.503906 233.585938 190.480469 C 234.121094 189.8125 234.660156 189.128906 235.207031 188.472656 C 235.386719 188.257812 235.46875 187.980469 235.746094 187.851562 C 235.566406 187.550781 235.386719 187.242188 235.183594 186.941406 C 235.078125 186.785156 235.027344 186.644531 235.136719 186.453125 C 236.292969 184.492188 236.960938 182.328125 237.582031 180.152344 C 238.09375 178.371094 238.464844 176.578125 238.597656 174.726562 C 238.285156 174.5 238.226562 174.128906 238.046875 173.820312 C 237.820312 173.425781 237.605469 173.019531 237.25 172.707031 C 236.234375 171.847656 235.21875 170.984375 234.207031 170.125 C 231.6875 167.960938 229.0625 165.953125 226.34375 164.054688 C 222.382812 161.292969 218.171875 158.9375 213.949219 156.605469 C 210.691406 154.800781 207.636719 152.734375 205.203125 149.832031 C 203.582031 147.894531 202.222656 145.800781 201.125 143.554688 C 199.847656 140.949219 198.929688 138.1875 198.1875 135.378906 C 196.746094 129.953125 195.851562 124.417969 195.195312 118.851562 C 194.90625 116.472656 194.691406 114.082031 194.476562 111.703125 C 194.25 109.15625 194.0625 106.609375 193.882812 104.054688 C 193.738281 101.914062 193.667969 99.773438 193.488281 97.632812 C 193.429688 96.882812 193.367188 96.128906 193.320312 95.386719 C 193.261719 94.417969 193.046875 93.464844 193.140625 92.496094 C 189.5625 92.421875 185.972656 92.269531 182.394531 92.386719 C 182 92.398438 181.605469 92.421875 181.210938 92.449219 C 181.210938 92.566406 181.234375 92.6875 181.210938 92.804688 C 180.949219 94.851562 180.867188 96.917969 180.734375 98.972656 C 180.652344 100.214844 180.578125 101.472656 180.484375 102.714844 C 180.328125 105.046875 180.101562 107.375 179.910156 109.707031 C 179.78125 111.332031 179.707031 112.957031 179.53125 114.570312 C 179.230469 117.164062 178.96875 119.769531 178.609375 122.351562 C 178.097656 126.082031 177.441406 129.785156 176.546875 133.445312 C 175.484375 137.78125 174.148438 142.011719 171.871094 145.886719 C 169.855469 149.304688 167.242188 152.160156 163.949219 154.394531 C 161.132812 156.296875 158.078125 157.800781 155.144531 159.511719 C 152.054688 161.316406 149.035156 163.21875 146.148438 165.320312 C 143.632812 167.160156 141.1875 169.085938 138.835938 171.128906 C 137.617188 172.191406 136.378906 173.195312 135.699219 174.785156 C 134.242188 178.21875 133.574219 181.695312 134.300781 185.402344 C 134.457031 186.128906 134.804688 186.847656 134.804688 187.636719 Z M 164.152344 170.089844 C 164.738281 169.789062 165.308594 169.886719 165.808594 170.304688 C 167.742188 171.90625 169.867188 173.160156 172.230469 174.011719 C 175.390625 175.132812 178.648438 175.789062 181.976562 176.136719 C 183.085938 176.257812 184.195312 176.234375 185.304688 176.28125 C 185.699219 176.292969 185.863281 176.195312 185.863281 175.753906 C 185.851562 174.261719 185.875 172.765625 185.875 171.273438 C 185.875 171.070312 185.902344 170.890625 185.613281 170.832031 C 182.871094 170.183594 180.867188 168.332031 178.8125 166.574219 C 177.371094 165.332031 176.296875 163.765625 175.269531 162.175781 C 175.03125 161.804688 174.949219 161.414062 175.054688 160.980469 C 175.054688 160.957031 175.066406 160.945312 175.066406 160.921875 C 175.367188 158.375 176.796875 156.941406 179.21875 156.117188 C 184.898438 154.191406 190.515625 154.457031 196.125 156.273438 C 198.5 157.039062 199.394531 158.460938 199.429688 161.449219 C 199.441406 162.023438 199.144531 162.511719 198.796875 162.964844 C 196.589844 165.882812 193.835938 168.164062 190.769531 170.089844 C 190.265625 170.398438 189.71875 170.664062 189.132812 170.78125 C 188.835938 170.84375 188.714844 170.960938 188.714844 171.296875 C 188.703125 172.671875 188.644531 174.046875 188.621094 175.421875 C 188.609375 176.257812 188.65625 176.28125 189.503906 176.257812 C 194.023438 176.136719 198.402344 175.277344 202.613281 173.628906 C 204.59375 172.851562 206.347656 171.703125 207.996094 170.375 C 208.757812 169.753906 209.570312 169.765625 210.117188 170.386719 C 210.644531 170.984375 210.546875 171.847656 209.832031 172.492188 C 207.519531 174.570312 204.820312 175.980469 201.886719 176.949219 C 201.648438 177.035156 201.398438 177.128906 201.160156 177.214844 C 201.183594 179.734375 201.136719 182.269531 200.886719 184.777344 C 200.515625 188.460938 199.953125 192.105469 198.390625 195.5 C 197.175781 198.152344 195.515625 200.449219 192.925781 201.941406 C 191.640625 202.683594 190.253906 203.183594 188.75 203.125 C 187.402344 203.066406 186.054688 203.257812 184.707031 203.019531 C 182.929688 202.707031 181.414062 201.90625 180.078125 200.722656 C 177.382812 198.34375 175.925781 195.25 175.03125 191.84375 C 174.375 189.34375 174.019531 186.796875 173.804688 184.21875 C 173.636719 182.210938 173.578125 180.214844 173.566406 178.207031 C 173.566406 177.964844 173.601562 177.726562 173.613281 177.5 C 172.457031 177.023438 171.238281 176.722656 170.09375 176.234375 C 168.027344 175.347656 166.121094 174.238281 164.402344 172.789062 C 163.972656 172.421875 163.496094 172.074219 163.460938 171.417969 C 163.4375 170.832031 163.625 170.351562 164.152344 170.089844 Z M 164.152344 170.089844 " fill-opacity="1" fill-rule="nonzero"/><path fill="#fef9ea" d="M 118.363281 249.128906 C 117.480469 246.367188 116.417969 243.667969 115.226562 241.027344 C 113.484375 237.164062 111.503906 233.4375 108.914062 230.054688 C 108.414062 229.398438 107.769531 228.847656 107.363281 228.117188 C 106.515625 228.703125 106.515625 228.703125 105.683594 227.972656 C 105.574219 227.878906 105.480469 227.785156 105.371094 227.699219 C 101.863281 224.746094 98.011719 222.355469 93.632812 220.910156 C 91.53125 220.21875 89.433594 220.003906 87.273438 220.777344 C 84.195312 221.878906 82.585938 224.28125 81.511719 227.136719 C 80.507812 229.792969 80.710938 232.589844 80.949219 235.335938 C 81.214844 238.359375 81.820312 241.3125 82.574219 244.253906 C 83.753906 248.855469 85.351562 253.300781 87.8125 257.402344 C 89.578125 260.339844 91.519531 263.136719 94.144531 265.410156 C 96.519531 267.453125 99.074219 269.222656 101.886719 270.621094 C 103.761719 271.550781 105.765625 271.984375 107.828125 271.945312 C 110.726562 271.898438 113.4375 271.050781 116.011719 269.664062 C 118.160156 268.503906 119.078125 266.664062 119.28125 264.40625 C 119.402344 263.175781 119.425781 261.992188 120.582031 261.226562 C 120.605469 261.203125 120.617188 261.152344 120.628906 261.117188 C 120.59375 259.984375 120.414062 258.871094 120.261719 257.757812 C 119.855469 254.832031 119.257812 251.9375 118.363281 249.128906 Z M 85.664062 236.582031 C 83.753906 236.617188 82.191406 235.027344 82.203125 233.101562 C 82.214844 231.25 83.742188 229.695312 85.628906 229.707031 C 87.621094 229.71875 89.148438 231.34375 89.015625 233.160156 C 89.136719 234.871094 87.691406 236.53125 85.664062 236.582031 Z M 104.511719 233.988281 C 105.96875 234 107.398438 235.253906 107.269531 236.878906 C 107.363281 238.265625 106.148438 239.652344 104.476562 239.675781 C 102.867188 239.6875 101.636719 238.398438 101.648438 236.785156 C 101.648438 235.207031 102.925781 233.972656 104.511719 233.988281 Z M 95.804688 233.328125 C 93.359375 233.328125 91.820312 231.511719 91.757812 229.265625 C 91.699219 227.054688 93.609375 225.175781 95.804688 225.175781 C 98 225.175781 99.859375 227.054688 99.859375 229.265625 C 99.753906 231.5 98.261719 233.328125 95.804688 233.328125 Z M 106.554688 267.058594 C 102.628906 267.035156 99.574219 264.058594 99.539062 260.042969 C 99.515625 256.015625 102.664062 252.992188 106.613281 252.964844 C 110.429688 253.003906 113.628906 255.992188 113.628906 259.984375 C 113.640625 264.140625 110.40625 267.082031 106.554688 267.058594 Z M 106.554688 267.058594 " fill-opacity="1" fill-rule="nonzero"/><path fill="#fef9ea" d="M 287.761719 235.707031 C 286.53125 234.726562 286.042969 233.210938 286.507812 231.824219 C 286.996094 230.375 288.261719 229.457031 289.71875 229.410156 C 290.863281 229.371094 291.734375 229.875 292.519531 230.628906 C 292.507812 229.300781 292.28125 228.011719 291.722656 226.804688 C 290.921875 225.070312 290.109375 223.324219 288.476562 222.175781 C 286.867188 221.042969 285.089844 220.300781 283.082031 220.386719 C 281.234375 220.457031 279.492188 221.03125 277.796875 221.757812 C 275.328125 222.824219 272.992188 224.125 270.785156 225.679688 C 268.554688 227.246094 266.523438 229.015625 265.023438 231.320312 C 264.605469 231.953125 264.066406 232.492188 263.542969 233.042969 C 263.136719 233.472656 262.777344 233.582031 262.335938 233.136719 C 262.277344 233.28125 262.242188 233.4375 262.160156 233.582031 C 260.871094 235.660156 259.722656 237.8125 258.699219 240.046875 C 256.609375 244.578125 254.773438 249.203125 253.785156 254.125 C 253.316406 256.433594 252.914062 258.75 252.78125 261.117188 C 253.734375 261.789062 254.175781 262.695312 254.070312 263.867188 C 254.046875 264.140625 254.058594 264.429688 254.105469 264.703125 C 254.425781 266.617188 255.035156 268.359375 256.824219 269.425781 C 257.769531 269.988281 258.734375 270.488281 259.75 270.894531 C 263.207031 272.257812 266.726562 272.519531 270.269531 271.265625 C 272.191406 270.585938 273.910156 269.496094 275.578125 268.347656 C 277.488281 267.035156 279.375 265.648438 280.9375 263.914062 C 285.003906 259.398438 287.796875 254.148438 289.667969 248.390625 C 291.054688 244.121094 292.054688 239.757812 292.472656 235.289062 C 292.1875 235.492188 291.914062 235.71875 291.601562 235.910156 C 290.46875 236.617188 288.785156 236.53125 287.761719 235.707031 Z M 270.976562 233.722656 C 272.5625 233.722656 273.898438 235.015625 273.898438 236.554688 C 273.898438 238.167969 272.585938 239.472656 270.976562 239.472656 C 269.398438 239.472656 268.125 238.195312 268.085938 236.59375 C 268.0625 235.050781 269.398438 233.722656 270.976562 233.722656 Z M 268.828125 266.855469 C 264.925781 266.84375 261.703125 263.640625 261.777344 259.730469 C 261.847656 255.789062 264.808594 252.667969 268.886719 252.667969 C 272.894531 252.667969 275.914062 255.847656 275.9375 259.792969 C 275.960938 263.722656 272.765625 266.867188 268.828125 266.855469 Z M 279.625 233.136719 C 277.355469 233.125 275.566406 231.308594 275.566406 229.027344 C 275.566406 226.765625 277.394531 224.914062 279.636719 224.902344 C 281.890625 224.890625 283.738281 226.765625 283.726562 229.0625 C 283.714844 231.320312 281.890625 233.148438 279.625 233.136719 Z M 279.625 233.136719 " fill-opacity="1" fill-rule="nonzero"/><path fill="#fef9ea" d="M 159.59375 111.414062 C 160.308594 112.445312 160.929688 113.53125 161.300781 114.75 C 161.417969 115.132812 161.683594 115.394531 162.101562 115.277344 C 162.480469 115.15625 162.660156 114.847656 162.53125 114.425781 C 162.421875 114.082031 162.339844 113.734375 162.195312 113.410156 C 161.648438 112.085938 160.847656 110.890625 159.976562 109.753906 C 159.261719 108.796875 158.542969 107.855469 157.710938 106.992188 C 157.53125 106.800781 157.304688 106.621094 157.03125 106.765625 C 156.789062 106.886719 156.613281 107.078125 156.636719 107.386719 C 156.613281 107.613281 156.730469 107.78125 156.875 107.960938 C 157.828125 109.074219 158.757812 110.207031 159.59375 111.414062 Z M 159.59375 111.414062 " fill-opacity="1" fill-rule="nonzero"/><path fill="#fef9ea" d="M 153.953125 111.285156 C 154.824219 111.871094 155.644531 112.527344 156.386719 113.28125 C 157.195312 114.105469 158.019531 114.90625 158.640625 115.886719 C 158.808594 116.148438 159.023438 116.449219 159.402344 116.316406 C 159.703125 116.207031 159.894531 115.980469 159.855469 115.621094 C 159.867188 115.457031 159.796875 115.3125 159.703125 115.179688 C 158.328125 113.195312 156.636719 111.535156 154.65625 110.183594 C 154.296875 109.945312 153.855469 109.824219 153.546875 110.269531 C 153.210938 110.757812 153.605469 111.058594 153.953125 111.285156 Z M 153.953125 111.285156 " fill-opacity="1" fill-rule="nonzero"/><path fill="#fef9ea" d="M 212.527344 116.902344 C 213.019531 117.105469 213.257812 116.78125 213.460938 116.410156 C 214.269531 114.941406 215.378906 113.699219 216.539062 112.503906 C 217.503906 111.511719 218.519531 110.554688 219.757812 109.898438 C 220.09375 109.71875 220.175781 109.429688 220.082031 109.085938 C 219.996094 108.796875 219.78125 108.679688 219.484375 108.691406 C 219.042969 108.761719 218.671875 108.988281 218.316406 109.242188 C 217.097656 110.101562 216 111.117188 215.011719 112.214844 C 214.019531 113.316406 213.054688 114.453125 212.3125 115.753906 C 212.050781 116.246094 212.136719 116.734375 212.527344 116.902344 Z M 212.527344 116.902344 " fill-opacity="1" fill-rule="nonzero"/><path fill="#fef9ea" d="M 216.144531 116.675781 C 215.941406 116.878906 215.871094 117.117188 215.988281 117.378906 C 216.109375 117.617188 216.324219 117.714844 216.574219 117.691406 C 216.765625 117.703125 216.929688 117.65625 217.085938 117.535156 C 218.21875 116.699219 219.460938 116.015625 220.699219 115.359375 C 221.046875 115.167969 221.320312 114.929688 221.117188 114.511719 C 220.914062 114.082031 220.558594 113.984375 220.117188 114.210938 C 219.292969 114.617188 218.492188 115.0625 217.730469 115.5625 C 217.207031 115.910156 216.609375 116.207031 216.144531 116.675781 Z M 216.144531 116.675781 " fill-opacity="1" fill-rule="nonzero"/><path fill="#fef9ea" d="M 156.71875 134.949219 C 158.628906 134.9375 160.191406 133.359375 160.191406 131.4375 C 160.191406 129.523438 158.605469 127.957031 156.695312 127.957031 C 154.785156 127.96875 153.199219 129.570312 153.222656 131.460938 C 153.234375 133.382812 154.835938 134.960938 156.71875 134.949219 Z M 156.71875 134.949219 " fill-opacity="1" fill-rule="nonzero"/><path fill="#fef9ea" d="M 213.433594 134.925781 C 215.378906 134.960938 216.929688 133.457031 216.980469 131.496094 C 217.027344 129.59375 215.464844 127.980469 213.53125 127.957031 C 211.609375 127.933594 210.023438 129.5 210.023438 131.421875 C 210.011719 133.347656 211.527344 134.902344 213.433594 134.925781 Z M 213.433594 134.925781 " fill-opacity="1" fill-rule="nonzero"/><g fill="#3871c1" fill-opacity="1"><g transform="translate(190.628768, 266.039601)"><g/></g></g></svg>